<?xml version="1.0" encoding="UTF-8" standalone="no"?><!DOCTYPE svg PUBLIC "-//W3C//DTD SVG 1.1//EN" "http://www.w3.org/Graphics/SVG/1.1/DTD/svg11.dtd"><svg width="100%" height="100%" viewBox="0 0 400 400" version="1.1" xmlns="http://www.w3.org/2000/svg" xmlns:xlink="http://www.w3.org/1999/xlink" xml:space="preserve" xmlns:serif="http://www.serif.com/" style="fill-rule:evenodd;clip-rule:evenodd;stroke-linejoin:round;stroke-miterlimit:2;"><path id="AffterEffects" d="M246.147,87.942c12.25,-0 22.18,9.93 22.18,22.18l0,88.912c0,12.249 -9.93,22.18 -22.18,22.18l-92.294,-0c-12.25,-0 -22.18,-9.931 -22.18,-22.18l-0,-88.912c-0,-12.25 9.93,-22.18 22.18,-22.18l92.294,-0Zm13.947,24.819c-0,-4.381 -1.741,-8.584 -4.839,-11.682c-3.099,-3.098 -7.301,-4.839 -11.683,-4.839l-87.144,0c-4.382,0 -8.584,1.741 -11.683,4.839c-3.098,3.098 -4.839,7.301 -4.839,11.682l0,83.633c0,4.382 1.741,8.584 4.839,11.683c3.099,3.098 7.301,4.839 11.683,4.839l87.144,-0c4.382,-0 8.584,-1.741 11.683,-4.839c3.098,-3.099 4.839,-7.301 4.839,-11.683l-0,-83.633Zm-91.671,9.425l14.786,0.047c0.293,0.001 0.554,0.186 0.652,0.462l20.818,58.183c0.066,0.185 0.038,0.391 -0.075,0.551c-0.113,0.161 -0.298,0.256 -0.494,0.256l-12.062,-0.02c-0.362,-0 -0.683,-0.231 -0.8,-0.573l-4.674,-13.704l-0.007,0.274l-21.173,0.04l-4.337,13.463c-0.143,0.442 -0.555,0.742 -1.02,0.741l-10.848,-0.015c-0.213,0 -0.413,-0.103 -0.536,-0.277c-0.123,-0.173 -0.155,-0.396 -0.085,-0.597l18.973,-54.443c0.207,-1.215 0.334,-2.479 0.324,-3.826c-0.001,-0.149 0.057,-0.292 0.161,-0.398c0.105,-0.105 0.248,-0.165 0.397,-0.164Zm7.487,10.498c-0.012,-0.041 -0.05,-0.068 -0.092,-0.066c-0.043,0.001 -0.078,0.031 -0.087,0.072c-0.929,4.366 -1.926,7.085 -2.977,10.609c-1.473,4.938 -2.912,9.747 -4.079,13.019l14.484,-0.009c-2.652,-7.945 -5.093,-15.976 -7.249,-23.625Zm44.289,29.815c2.064,15.085 21.133,9.007 24.145,7.946c0.091,-0.034 0.193,-0.021 0.273,0.035c0.08,0.055 0.127,0.146 0.128,0.244l-0.004,9.035c-0,0.527 -0.323,1 -0.813,1.193c-0.374,0.141 -0.868,0.316 -1.464,0.506c-1.805,0.573 -4.583,1.686 -11.595,1.666c-23.698,-0.069 -23.441,-20.66 -23.441,-20.66c-0,0 -1.199,-11.636 5.619,-19.484c3.132,-3.607 7.412,-7.067 15.25,-7.067c12.894,0 17.843,7.114 19.618,13.972c1.268,4.9 0.694,9.77 0.365,11.77c-0.108,0.549 -0.59,0.945 -1.149,0.942l-26.932,-0.098Zm-0.072,-8.269c-0,0 12.588,-0.039 14.512,-0.039c1.924,-0 2.047,-0.493 2.047,-0.493l-0.016,-1.325c-0,-0 -0.77,-6.586 -7.81,-6.586c-8.456,0 -8.733,8.443 -8.733,8.443Zm13.47,100.459l9.86,-0l0,-2.849c0,-1.996 0.207,-3.676 0.621,-5.039c0.414,-1.363 1.095,-2.471 2.045,-3.323c0.949,-0.852 2.203,-1.473 3.761,-1.863c1.559,-0.389 3.482,-0.584 5.77,-0.584c0.974,-0 2.009,0.037 3.104,0.11c1.096,0.073 2.155,0.182 3.178,0.328l-0,8.253c-0.341,-0.097 -0.67,-0.158 -0.986,-0.182c-0.317,-0.025 -0.719,-0.037 -1.206,-0.037c-0.827,0 -1.558,0.219 -2.191,0.658c-0.633,0.438 -0.949,1.144 -0.949,2.118l-0,2.41l5.332,-0l-0,8.837l-5.332,0l-0,30.676l-13.147,0l0,-30.676l-9.86,0l0,30.676l-13.147,0l0,-30.676l-4.528,0l0,-8.837l4.528,-0l0,-2.849c0,-1.996 0.207,-3.676 0.621,-5.039c0.414,-1.363 1.096,-2.471 2.045,-3.323c0.95,-0.852 2.204,-1.473 3.762,-1.863c1.558,-0.389 3.481,-0.584 5.77,-0.584c0.973,-0 2.008,0.037 3.104,0.11c1.095,0.073 2.154,0.182 3.177,0.328l-0,8.253c-0.341,-0.097 -0.67,-0.158 -0.986,-0.182c-0.317,-0.025 -0.718,-0.037 -1.205,-0.037c-0.828,0 -1.558,0.219 -2.191,0.658c-0.633,0.438 -0.95,1.144 -0.95,2.118l0,2.41Zm-191.795,-12.635l12.708,52.148l-14.461,0l-1.388,-9.13l-10.81,0l-1.387,9.13l-14.243,0l12.49,-52.148l17.091,-0Zm-8.619,10.663l-3.725,22.13l7.596,0l-3.725,-22.13l-0.146,-0Zm24.906,10.809l-4.528,0l-0,-8.837l4.528,-0l-0,-2.849c-0,-1.996 0.207,-3.676 0.621,-5.039c0.414,-1.363 1.095,-2.471 2.045,-3.323c0.949,-0.852 2.203,-1.473 3.761,-1.863c1.558,-0.389 3.482,-0.584 5.77,-0.584c0.974,-0 2.009,0.037 3.104,0.11c1.096,0.073 2.155,0.182 3.177,0.328l0,8.253c-0.341,-0.097 -0.669,-0.158 -0.986,-0.182c-0.316,-0.025 -0.718,-0.037 -1.205,-0.037c-0.828,0 -1.558,0.219 -2.191,0.658c-0.633,0.438 -0.95,1.144 -0.95,2.118l0,2.41l5.332,-0l0,8.837l-5.332,0l0,30.676l-13.146,0l-0,-30.676Zm18.624,-8.837l4.383,-0l-0,-11.613l13.146,0l0,11.613l5.186,-0l-0,8.837l-5.186,0l0,18.844c0,1.12 0.256,1.911 0.767,2.374c0.511,0.462 1.303,0.694 2.374,0.694l2.045,-0l-0,8.764c-1.217,0 -2.435,0.037 -3.652,0.11c-1.217,0.073 -2.386,0.109 -3.506,0.109c-1.996,0 -3.7,-0.085 -5.112,-0.255c-1.412,-0.171 -2.569,-0.597 -3.47,-1.279c-0.9,-0.681 -1.558,-1.692 -1.972,-3.031c-0.414,-1.339 -0.62,-3.104 -0.62,-5.295l-0,-21.035l-4.383,0l0,-8.837Zm37.468,21.984l0,5.186c0,2.142 0.366,3.566 1.096,4.272c0.73,0.706 1.558,1.059 2.483,1.059c1.169,0 2.082,-0.474 2.739,-1.424c0.657,-0.949 0.986,-2.763 0.986,-5.441l11.832,-0c-0.097,4.869 -1.339,8.533 -3.725,10.992c-2.386,2.459 -6.305,3.688 -11.759,3.688c-3.165,0 -5.818,-0.353 -7.961,-1.059c-2.142,-0.706 -3.871,-1.874 -5.185,-3.505c-1.315,-1.632 -2.252,-3.762 -2.812,-6.391c-0.56,-2.629 -0.84,-5.819 -0.84,-9.568c-0,-3.798 0.316,-7.012 0.949,-9.641c0.633,-2.629 1.631,-4.772 2.995,-6.427c1.363,-1.656 3.104,-2.861 5.222,-3.616c2.118,-0.754 4.662,-1.132 7.632,-1.132c2.63,0 4.93,0.317 6.902,0.95c1.972,0.633 3.628,1.692 4.967,3.177c1.339,1.485 2.337,3.433 2.994,5.843c0.658,2.41 0.986,5.417 0.986,9.02l0,4.017l-19.501,0Zm7.231,-8.91c0,-2.094 -0.256,-3.628 -0.767,-4.602c-0.511,-0.974 -1.473,-1.46 -2.885,-1.46c-1.363,-0 -2.301,0.486 -2.812,1.46c-0.511,0.974 -0.767,2.508 -0.767,4.602l0,1.752l7.231,0l0,-1.752Zm15.557,-13.074l12.708,-0l0,6.281l0.146,0c0.731,-2.386 1.899,-4.2 3.506,-5.441c1.607,-1.242 3.384,-1.863 5.332,-1.863l2.118,0l0,12.271c-0.584,-0.098 -1.144,-0.171 -1.68,-0.219c-0.535,-0.049 -1.071,-0.073 -1.607,-0.073c-2.337,-0 -4.151,0.511 -5.441,1.533c-1.29,1.023 -1.935,2.849 -1.935,5.478l-0,21.546l-13.147,0l-0,-39.513Zm45.648,-12.635l30.895,-0l-0,11.101l-17.31,0l0,8.911l16.214,-0l0,10.663l-16.214,0l0,10.371l17.967,0l0,11.102l-31.552,0l0,-52.148Zm93.926,34.619l-0,5.186c-0,2.142 0.365,3.566 1.095,4.272c0.731,0.706 1.559,1.059 2.484,1.059c1.168,0 2.081,-0.474 2.739,-1.424c0.657,-0.949 0.986,-2.763 0.986,-5.441l11.832,-0c-0.098,4.869 -1.339,8.533 -3.725,10.992c-2.386,2.459 -6.306,3.688 -11.759,3.688c-3.165,0 -5.819,-0.353 -7.961,-1.059c-2.143,-0.706 -3.871,-1.874 -5.186,-3.505c-1.315,-1.632 -2.252,-3.762 -2.812,-6.391c-0.56,-2.629 -0.84,-5.819 -0.84,-9.568c0,-3.798 0.317,-7.012 0.95,-9.641c0.633,-2.629 1.631,-4.772 2.994,-6.427c1.364,-1.656 3.104,-2.861 5.222,-3.616c2.118,-0.754 4.663,-1.132 7.633,-1.132c2.629,0 4.93,0.317 6.902,0.95c1.972,0.633 3.627,1.692 4.966,3.177c1.339,1.485 2.338,3.433 2.995,5.843c0.657,2.41 0.986,5.417 0.986,9.02l-0,4.017l-19.501,0Zm7.231,-8.91c-0,-2.094 -0.256,-3.628 -0.767,-4.602c-0.512,-0.974 -1.473,-1.46 -2.885,-1.46c-1.364,-0 -2.301,0.486 -2.812,1.46c-0.511,0.974 -0.767,2.508 -0.767,4.602l-0,1.752l7.231,0l-0,-1.752Zm35.569,2.41c-0,-1.607 -0.073,-2.91 -0.219,-3.908c-0.146,-0.998 -0.366,-1.813 -0.658,-2.446c-0.535,-1.12 -1.509,-1.68 -2.921,-1.68c-0.731,-0 -1.351,0.182 -1.863,0.548c-0.511,0.365 -0.913,1.022 -1.205,1.972c-0.292,0.949 -0.499,2.215 -0.621,3.797c-0.121,1.583 -0.182,3.591 -0.182,6.026c-0,2.435 0.061,4.443 0.182,6.026c0.122,1.582 0.329,2.836 0.621,3.761c0.292,0.925 0.694,1.57 1.205,1.935c0.512,0.366 1.132,0.548 1.863,0.548c1.217,0 2.154,-0.462 2.812,-1.387c0.657,-0.926 0.986,-2.63 0.986,-5.113l-0,-2.556l11.832,-0c-0,3.116 -0.268,5.77 -0.804,7.961c-0.535,2.191 -1.436,3.992 -2.702,5.404c-2.483,2.63 -6.525,3.944 -12.124,3.944c-2.532,0 -4.845,-0.219 -6.939,-0.657c-2.093,-0.438 -3.883,-1.375 -5.368,-2.812c-1.485,-1.436 -2.641,-3.457 -3.469,-6.062c-0.828,-2.605 -1.242,-6.05 -1.242,-10.335c0,-4.674 0.463,-8.423 1.388,-11.247c0.925,-2.824 2.179,-4.991 3.761,-6.501c1.583,-1.509 3.445,-2.507 5.588,-2.994c2.142,-0.487 4.455,-0.731 6.938,-0.731c2.922,0 5.344,0.402 7.267,1.206c1.924,0.803 3.457,1.923 4.602,3.359c1.144,1.437 1.947,3.165 2.41,5.186c0.462,2.021 0.694,4.273 0.694,6.756l-11.832,-0Zm13,-15.484l4.383,-0l-0,-11.613l13.146,0l0,11.613l5.186,-0l-0,8.837l-5.186,0l0,18.844c0,1.12 0.256,1.911 0.767,2.374c0.511,0.462 1.303,0.694 2.374,0.694l2.045,-0l-0,8.764c-1.217,0 -2.435,0.037 -3.652,0.11c-1.217,0.073 -2.386,0.109 -3.506,0.109c-1.996,0 -3.7,-0.085 -5.112,-0.255c-1.412,-0.171 -2.569,-0.597 -3.47,-1.279c-0.9,-0.681 -1.558,-1.692 -1.972,-3.031c-0.414,-1.339 -0.62,-3.104 -0.62,-5.295l-0,-21.035l-4.383,0l0,-8.837Zm35.642,27.243c0,0.779 0.073,1.509 0.22,2.191c0.146,0.682 0.389,1.242 0.73,1.68c0.633,0.925 1.558,1.387 2.775,1.387c1.023,0 1.911,-0.292 2.666,-0.876c0.755,-0.584 1.132,-1.412 1.132,-2.483c0,-1.169 -0.474,-2.07 -1.424,-2.703c-0.949,-0.633 -2.13,-1.193 -3.542,-1.679c-1.412,-0.487 -2.934,-0.999 -4.565,-1.534c-1.631,-0.536 -3.153,-1.266 -4.565,-2.191c-1.412,-0.926 -2.593,-2.155 -3.542,-3.689c-0.95,-1.534 -1.424,-3.542 -1.424,-6.025c-0,-1.753 0.316,-3.372 0.949,-4.857c0.633,-1.485 1.595,-2.788 2.885,-3.908c1.29,-1.12 2.922,-1.996 4.894,-2.629c1.972,-0.633 4.297,-0.95 6.975,-0.95c9.884,0 14.826,4.139 14.826,12.417l-11.394,-0c0,-1.704 -0.304,-2.861 -0.913,-3.47c-0.608,-0.608 -1.473,-0.912 -2.592,-0.912c-0.974,-0 -1.778,0.267 -2.411,0.803c-0.633,0.536 -0.949,1.29 -0.949,2.264c-0,1.12 0.475,1.96 1.424,2.52c0.95,0.56 2.13,1.059 3.542,1.497c1.412,0.438 2.934,0.901 4.565,1.388c1.631,0.487 3.153,1.181 4.565,2.081c1.412,0.901 2.593,2.118 3.542,3.652c0.95,1.534 1.425,3.567 1.425,6.099c-0,1.947 -0.366,3.725 -1.096,5.332c-0.73,1.606 -1.765,2.994 -3.104,4.163c-1.339,1.168 -2.995,2.045 -4.967,2.629c-1.972,0.584 -4.199,0.876 -6.683,0.876c-5.502,0 -9.458,-1.095 -11.868,-3.286c-2.41,-2.191 -3.615,-5.454 -3.615,-9.787l11.539,-0Z" style="fill:#d8d8d8;"/></svg>