<?xml version="1.0" encoding="UTF-8" standalone="no"?><!DOCTYPE svg PUBLIC "-//W3C//DTD SVG 1.1//EN" "http://www.w3.org/Graphics/SVG/1.1/DTD/svg11.dtd"><svg width="100%" height="100%" viewBox="0 0 400 400" version="1.1" xmlns="http://www.w3.org/2000/svg" xmlns:xlink="http://www.w3.org/1999/xlink" xml:space="preserve" xmlns:serif="http://www.serif.com/" style="fill-rule:evenodd;clip-rule:evenodd;stroke-linejoin:round;stroke-miterlimit:2;"><path d="M158.625,161.175c-0.264,0.152 -0.403,0.258 -0.403,0.258c0,0 0.128,-0.127 0.403,-0.258Zm160.235,-64.095c-15.166,2.969 -23.187,2.592 -59.524,20.901c-36.733,18.509 -65.496,35.925 -76.335,43.461c-10.84,7.536 -51.241,35.517 -51.241,35.517c0,-0 -2.549,1.478 -4.957,0.238c-0,-0 36.495,-26.718 43.457,-29.714c-7.034,-7.44 -10.526,-6.84 -11.635,-6.308c1.345,-0.775 5.94,-2.73 11.979,2.209c-4.377,-5.838 -3.173,-9.5 -3.173,-9.5c-0,0 3.093,5.272 5.914,8.072c3.98,-2.163 4.937,-9.959 5.03,-11.534c0.093,-1.574 0.578,-10.949 0.578,-10.949c0,-0 3.138,5.709 2.728,11.863c2.83,-4.659 19.609,-19.922 41.339,-31.749c21.729,-11.827 46.598,-21.646 61.578,-26.063c14.981,-4.416 49.378,-8.826 49.378,-8.826c-0,0 3.191,13.904 -5.165,23.757c-8.356,9.852 -34.701,24.551 -49.832,21.912c5.31,2.952 10.027,3.536 10.027,3.536c0,-0 -14.516,12.457 -28.226,8.005c7.328,4.243 9.369,3.521 9.369,3.521c-0,-0 -11.389,4.282 -19.461,2.594c5.869,2.165 8.014,3.046 8.014,3.046c-0,0 -37.35,26.288 -62.54,11.909c7.258,10.481 22.22,8.556 22.22,8.556c0,-0 -13.972,6.75 -22.835,2.811c3.145,4.657 9.112,3.529 9.112,3.529c-0,-0 -14.553,6.396 -28.568,-6.622c-0.226,8.273 -2.888,8.877 -2.888,8.877c-0,0 1.986,-7.616 -0.247,-8.227c11.229,-8.491 41.225,-26.209 41.225,-26.209l43.631,-24.359l30.792,-14.411c-0,0 21.027,-7.954 30.256,-9.843c0.165,-0.033 0.331,-0.065 0.497,-0.099c-0.161,0.031 -0.327,0.064 -0.497,0.099Zm-281.233,165.594l22.398,-58.321l8.315,-0l23.869,58.321l-8.792,-0l-6.803,-17.663l-24.386,-0l-6.405,17.663l-8.196,-0Zm16.828,-23.949l19.772,-0l-6.086,-16.152c-1.857,-4.906 -3.236,-8.938 -4.138,-12.094c-0.742,3.74 -1.79,7.453 -3.143,11.139l-6.405,17.107Zm43.92,23.949l0,-58.321l22,-0c3.872,-0 6.829,0.185 8.872,0.557c2.864,0.477 5.264,1.385 7.2,2.725c1.936,1.339 3.495,3.216 4.675,5.629c1.18,2.413 1.77,5.066 1.77,7.957c0,4.959 -1.578,9.156 -4.734,12.591c-3.156,3.434 -8.858,5.152 -17.107,5.152l-14.958,-0l0,23.71l-7.718,-0Zm7.718,-30.593l15.078,0c4.986,0 8.527,-0.928 10.622,-2.785c2.095,-1.856 3.143,-4.469 3.143,-7.837c-0,-2.44 -0.617,-4.528 -1.85,-6.266c-1.234,-1.737 -2.858,-2.884 -4.874,-3.441c-1.299,-0.345 -3.699,-0.517 -7.2,-0.517l-14.919,0l0,20.846Zm34.173,30.593l22.398,-58.321l8.315,-0l23.869,58.321l-8.792,-0l-6.803,-17.663l-24.386,-0l-6.405,17.663l-8.196,-0Zm16.828,-23.949l19.772,-0l-6.086,-16.152c-1.857,-4.906 -3.236,-8.938 -4.138,-12.094c-0.742,3.74 -1.79,7.453 -3.143,11.139l-6.405,17.107Zm85.533,3.501l7.718,1.949c-1.618,6.339 -4.529,11.172 -8.732,14.501c-4.204,3.328 -9.343,4.993 -15.416,4.993c-6.286,-0 -11.398,-1.28 -15.336,-3.839c-3.939,-2.56 -6.936,-6.266 -8.991,-11.12c-2.056,-4.853 -3.083,-10.065 -3.083,-15.634c-0,-6.074 1.16,-11.371 3.481,-15.893c2.32,-4.522 5.622,-7.957 9.905,-10.304c4.284,-2.347 8.998,-3.521 14.143,-3.521c5.835,0 10.741,1.485 14.72,4.456c3.978,2.97 6.75,7.147 8.314,12.531l-7.598,1.791c-1.353,-4.244 -3.315,-7.334 -5.888,-9.27c-2.573,-1.936 -5.808,-2.904 -9.707,-2.904c-4.482,0 -8.228,1.074 -11.239,3.222c-3.01,2.149 -5.125,5.033 -6.345,8.653c-1.22,3.62 -1.83,7.353 -1.83,11.199c0,4.96 0.723,9.289 2.168,12.989c1.446,3.7 3.693,6.465 6.743,8.295c3.05,1.83 6.352,2.745 9.906,2.745c4.323,-0 7.983,-1.247 10.98,-3.74c2.997,-2.493 5.026,-6.193 6.087,-11.099Zm17.465,20.448l-0,-58.321l7.717,-0l0,23.949l30.315,-0l-0,-23.949l7.718,-0l-0,58.321l-7.718,-0l-0,-27.49l-30.315,0l0,27.49l-7.717,-0Zm58.758,-0l0,-58.321l42.17,-0l0,6.882l-34.452,0l0,17.862l32.264,0l-0,6.843l-32.264,0l0,19.852l35.805,-0l-0,6.882l-43.523,-0Zm-279.741,22.76l2.334,-0.204c0.111,0.936 0.368,1.703 0.772,2.303c0.404,0.599 1.031,1.084 1.882,1.454c0.85,0.37 1.807,0.555 2.87,0.555c0.944,-0 1.777,-0.14 2.5,-0.421c0.723,-0.281 1.261,-0.665 1.614,-1.154c0.353,-0.489 0.529,-1.023 0.529,-1.601c0,-0.587 -0.17,-1.1 -0.51,-1.538c-0.34,-0.438 -0.901,-0.805 -1.684,-1.103c-0.502,-0.196 -1.611,-0.5 -3.329,-0.912c-1.718,-0.413 -2.922,-0.802 -3.61,-1.167c-0.893,-0.468 -1.559,-1.048 -1.997,-1.742c-0.438,-0.693 -0.657,-1.469 -0.657,-2.328c0,-0.944 0.268,-1.826 0.804,-2.647c0.536,-0.82 1.318,-1.443 2.347,-1.868c1.029,-0.426 2.173,-0.638 3.432,-0.638c1.386,-0 2.608,0.223 3.667,0.669c1.059,0.447 1.873,1.104 2.443,1.971c0.57,0.868 0.876,1.85 0.918,2.947l-2.372,0.179c-0.128,-1.182 -0.559,-2.075 -1.295,-2.679c-0.736,-0.604 -1.822,-0.906 -3.259,-0.906c-1.497,0 -2.588,0.274 -3.272,0.823c-0.685,0.548 -1.027,1.21 -1.027,1.984c-0,0.671 0.242,1.224 0.727,1.658c0.476,0.434 1.72,0.878 3.731,1.333c2.011,0.455 3.391,0.853 4.14,1.193c1.088,0.501 1.892,1.137 2.411,1.907c0.518,0.769 0.778,1.656 0.778,2.659c-0,0.995 -0.285,1.933 -0.855,2.813c-0.57,0.88 -1.388,1.565 -2.456,2.054c-1.067,0.489 -2.268,0.734 -3.603,0.734c-1.693,-0 -3.111,-0.247 -4.255,-0.74c-1.143,-0.494 -2.041,-1.236 -2.691,-2.226c-0.651,-0.991 -0.993,-2.111 -1.027,-3.362Zm17.515,-3.099c-0,-3.105 0.833,-5.535 2.5,-7.291c1.667,-1.756 3.818,-2.634 6.455,-2.634c1.726,0 3.282,0.412 4.668,1.237c1.387,0.825 2.443,1.976 3.17,3.451c0.728,1.476 1.091,3.149 1.091,5.02c0,1.896 -0.383,3.593 -1.148,5.09c-0.765,1.496 -1.85,2.629 -3.253,3.399c-1.403,0.77 -2.917,1.155 -4.541,1.155c-1.761,-0 -3.334,-0.426 -4.72,-1.276c-1.386,-0.85 -2.437,-2.011 -3.151,-3.483c-0.714,-1.471 -1.071,-3.027 -1.071,-4.668Zm2.551,0.038c-0,2.253 0.606,4.029 1.818,5.326c1.212,1.297 2.732,1.945 4.56,1.945c1.863,0 3.395,-0.655 4.599,-1.964c1.203,-1.31 1.805,-3.168 1.805,-5.575c-0,-1.522 -0.257,-2.851 -0.772,-3.986c-0.514,-1.136 -1.267,-2.016 -2.258,-2.641c-0.991,-0.625 -2.102,-0.938 -3.336,-0.938c-1.752,0 -3.259,0.602 -4.522,1.805c-1.263,1.204 -1.894,3.213 -1.894,6.028Zm18.65,9.07l-0,-18.701l12.616,-0l0,2.207l-10.141,-0l-0,5.791l8.776,-0l0,2.207l-8.776,-0l-0,8.496l-2.475,-0Zm20.589,-0l-0,-16.494l-6.162,-0l0,-2.207l14.823,-0l0,2.207l-6.186,-0l-0,16.494l-2.475,-0Zm14.466,-0l-4.963,-18.701l2.539,-0l2.845,12.259c0.306,1.284 0.569,2.559 0.791,3.827c0.476,-1.999 0.756,-3.151 0.841,-3.457l3.559,-12.629l2.986,-0l2.678,9.465c0.672,2.347 1.157,4.554 1.455,6.621c0.238,-1.183 0.548,-2.539 0.931,-4.07l2.934,-12.016l2.487,-0l-5.128,18.701l-2.385,-0l-3.942,-14.249c-0.332,-1.191 -0.527,-1.922 -0.587,-2.194c-0.195,0.859 -0.378,1.59 -0.548,2.194l-3.968,14.249l-2.525,-0Zm18.369,-0l7.182,-18.701l2.666,-0l7.654,18.701l-2.819,-0l-2.182,-5.664l-7.819,-0l-2.054,5.664l-2.628,-0Zm5.396,-7.68l6.34,0l-1.952,-5.179c-0.595,-1.573 -1.037,-2.866 -1.326,-3.878c-0.239,1.199 -0.575,2.39 -1.008,3.572l-2.054,5.485Zm14.121,7.68l0,-18.701l8.292,-0c1.667,-0 2.934,0.168 3.802,0.504c0.867,0.335 1.56,0.929 2.079,1.779c0.519,0.851 0.778,1.79 0.778,2.819c-0,1.327 -0.429,2.445 -1.288,3.355c-0.859,0.91 -2.186,1.488 -3.98,1.735c0.654,0.315 1.152,0.625 1.492,0.931c0.723,0.664 1.408,1.493 2.054,2.488l3.253,5.09l-3.113,-0l-2.475,-3.891c-0.722,-1.123 -1.318,-1.982 -1.785,-2.577c-0.468,-0.595 -0.887,-1.012 -1.257,-1.25c-0.37,-0.238 -0.746,-0.404 -1.129,-0.497c-0.281,-0.06 -0.74,-0.09 -1.378,-0.09l-2.87,0l0,8.305l-2.475,-0Zm2.475,-10.448l5.32,0c1.131,0 2.015,-0.117 2.653,-0.351c0.638,-0.234 1.123,-0.608 1.454,-1.122c0.332,-0.515 0.498,-1.074 0.498,-1.678c-0,-0.884 -0.321,-1.611 -0.963,-2.181c-0.643,-0.57 -1.657,-0.855 -3.043,-0.855l-5.919,0l0,6.187Zm16.405,10.448l-0,-18.701l13.522,-0l-0,2.207l-11.047,-0l-0,5.727l10.345,0l0,2.194l-10.345,0l-0,6.366l11.481,-0l-0,2.207l-13.956,-0Zm24.76,-0l0,-18.701l12.616,-0l0,2.207l-10.141,-0l0,5.791l8.776,-0l0,2.207l-8.776,-0l0,8.496l-2.475,-0Zm15.078,-9.108c0,-3.105 0.834,-5.535 2.501,-7.291c1.667,-1.756 3.818,-2.634 6.454,-2.634c1.727,0 3.283,0.412 4.669,1.237c1.387,0.825 2.443,1.976 3.17,3.451c0.727,1.476 1.091,3.149 1.091,5.02c0,1.896 -0.383,3.593 -1.148,5.09c-0.765,1.496 -1.85,2.629 -3.253,3.399c-1.403,0.77 -2.917,1.155 -4.541,1.155c-1.761,-0 -3.334,-0.426 -4.72,-1.276c-1.386,-0.85 -2.437,-2.011 -3.151,-3.483c-0.714,-1.471 -1.072,-3.027 -1.072,-4.668Zm2.552,0.038c-0,2.253 0.606,4.029 1.818,5.326c1.211,1.297 2.732,1.945 4.56,1.945c1.862,0 3.395,-0.655 4.599,-1.964c1.203,-1.31 1.805,-3.168 1.805,-5.575c-0,-1.522 -0.258,-2.851 -0.772,-3.986c-0.515,-1.136 -1.267,-2.016 -2.258,-2.641c-0.991,-0.625 -2.103,-0.938 -3.336,-0.938c-1.752,0 -3.259,0.602 -4.522,1.805c-1.263,1.204 -1.894,3.213 -1.894,6.028Zm30.794,-9.631l2.475,-0l-0,10.804c-0,1.88 -0.213,3.372 -0.638,4.478c-0.425,1.106 -1.193,2.005 -2.303,2.698c-1.11,0.693 -2.566,1.04 -4.369,1.04c-1.752,-0 -3.185,-0.302 -4.299,-0.906c-1.114,-0.604 -1.909,-1.478 -2.385,-2.622c-0.476,-1.143 -0.715,-2.706 -0.715,-4.688l0,-10.804l2.475,-0l0,10.792c0,1.624 0.151,2.821 0.453,3.591c0.302,0.769 0.821,1.362 1.556,1.779c0.736,0.417 1.635,0.625 2.698,0.625c1.82,0 3.117,-0.412 3.891,-1.237c0.774,-0.825 1.161,-2.411 1.161,-4.758l-0,-10.792Zm6.569,18.701l0,-18.701l2.539,-0l9.822,14.682l0,-14.682l2.373,-0l0,18.701l-2.538,-0l-9.823,-14.696l0,14.696l-2.373,-0Zm18.893,-0l-0,-18.701l6.442,-0c1.454,-0 2.564,0.089 3.329,0.268c1.072,0.246 1.986,0.693 2.743,1.339c0.986,0.833 1.724,1.899 2.213,3.195c0.489,1.297 0.734,2.779 0.734,4.446c-0,1.42 -0.166,2.679 -0.498,3.776c-0.332,1.097 -0.757,2.005 -1.276,2.724c-0.518,0.718 -1.086,1.284 -1.702,1.696c-0.617,0.413 -1.361,0.725 -2.233,0.938c-0.872,0.212 -1.873,0.319 -3.004,0.319l-6.748,-0Zm2.475,-2.207l3.992,-0c1.233,-0 2.201,-0.115 2.902,-0.345c0.702,-0.229 1.261,-0.552 1.678,-0.969c0.587,-0.587 1.044,-1.376 1.371,-2.366c0.328,-0.991 0.491,-2.192 0.491,-3.604c0,-1.956 -0.321,-3.459 -0.963,-4.51c-0.642,-1.05 -1.422,-1.754 -2.341,-2.111c-0.663,-0.255 -1.73,-0.382 -3.201,-0.382l-3.929,-0l-0,14.287Zm14.338,2.207l7.182,-18.701l2.666,-0l7.654,18.701l-2.819,-0l-2.182,-5.664l-7.82,-0l-2.053,5.664l-2.628,-0Zm5.396,-7.68l6.34,0l-1.952,-5.179c-0.595,-1.573 -1.037,-2.866 -1.327,-3.878c-0.238,1.199 -0.574,2.39 -1.007,3.572l-2.054,5.485Zm16.902,7.68l0,-16.494l-6.161,-0l-0,-2.207l14.823,-0l-0,2.207l-6.187,-0l-0,16.494l-2.475,-0Zm11.621,-0l0,-18.701l2.475,-0l0,18.701l-2.475,-0Zm6.085,-9.108c0,-3.105 0.834,-5.535 2.5,-7.291c1.667,-1.756 3.819,-2.634 6.455,-2.634c1.727,0 3.283,0.412 4.669,1.237c1.386,0.825 2.443,1.976 3.17,3.451c0.727,1.476 1.091,3.149 1.091,5.02c-0,1.896 -0.383,3.593 -1.148,5.09c-0.766,1.496 -1.85,2.629 -3.253,3.399c-1.403,0.77 -2.917,1.155 -4.542,1.155c-1.76,-0 -3.333,-0.426 -4.719,-1.276c-1.387,-0.85 -2.437,-2.011 -3.151,-3.483c-0.715,-1.471 -1.072,-3.027 -1.072,-4.668Zm2.551,0.038c0,2.253 0.606,4.029 1.818,5.326c1.212,1.297 2.732,1.945 4.561,1.945c1.862,0 3.395,-0.655 4.598,-1.964c1.204,-1.31 1.805,-3.168 1.805,-5.575c0,-1.522 -0.257,-2.851 -0.771,-3.986c-0.515,-1.136 -1.267,-2.016 -2.258,-2.641c-0.991,-0.625 -2.103,-0.938 -3.336,-0.938c-1.752,0 -3.259,0.602 -4.522,1.805c-1.263,1.204 -1.895,3.213 -1.895,6.028Zm18.497,9.07l0,-18.701l2.539,-0l9.822,14.682l0,-14.682l2.373,-0l0,18.701l-2.538,-0l-9.823,-14.696l0,14.696l-2.373,-0Z" style="fill:#d8d8d8;"/></svg>