<?xml version="1.0" encoding="UTF-8" standalone="no"?><!DOCTYPE svg PUBLIC "-//W3C//DTD SVG 1.1//EN" "http://www.w3.org/Graphics/SVG/1.1/DTD/svg11.dtd"><svg width="100%" height="100%" viewBox="0 0 400 400" version="1.1" xmlns="http://www.w3.org/2000/svg" xmlns:xlink="http://www.w3.org/1999/xlink" xml:space="preserve" xmlns:serif="http://www.serif.com/" style="fill-rule:evenodd;clip-rule:evenodd;stroke-linejoin:round;stroke-miterlimit:2;"><path d="M56.907,183.142l-3.187,12.345c-1.014,3.882 -3.479,6.314 -7.529,7.159l-12.454,0.021c-5.383,0.937 -8.867,4.397 -9.233,10.351c0.105,6.475 3.925,9.233 9.228,10.51l7.622,-0.055c1.152,-0.008 2.242,0.519 2.95,1.427c0.708,0.908 0.954,2.094 0.666,3.209l-3.95,15.28l-9.234,-0.05c-15.31,-0 -27.088,-14.406 -27.088,-29.717c-0,-17.698 14.049,-30.912 27.514,-30.912l24.695,0.432Zm-11.247,59.972l19.821,-73.953c1.126,-3.364 3.392,-5.359 7.074,-5.654l24.475,0.061c13.87,0 26.855,14.236 26.855,28.915c-0,18.33 -14.769,31.019 -28.276,31.019l-19.65,-0.009l3.578,-13.997c1.227,-2.739 3.059,-4.91 6.772,-5.316l8.808,-0.11c4.678,-1.361 8.696,-5.45 8.696,-9.421c-0,-5.518 -3.13,-10.227 -8.488,-11.547l-13.244,-0.392l-13.884,52.579c-0.904,4.784 -3.785,7.164 -7.855,8.1l-14.682,-0.275Zm84.782,-60.183c-0,0 36.19,-0.218 46.602,0c7.157,0.15 15.506,4.109 13.893,16.377c-0.4,3.042 -0.927,5.627 -0.927,5.627l-8.247,29.614c-0,-0 -2.607,8.39 -11.08,8.39c-8.473,-0 -35.314,0.45 -35.314,0.45c0,-0 -15.906,-2.788 -15.906,-17.818c-0,-15.03 13.37,-18.752 16.153,-18.752c2.783,-0 28.824,0.034 28.824,0.034c-1.655,5.705 -1.715,13.004 -8.591,13.487l-14.341,0.004c-2.079,0.798 -2.352,3.716 -0,4.558l20.981,-0.068c1.404,-0.229 2.215,-1.05 2.467,-2.43l5.08,-19.205c0.483,-1.837 -0.418,-2.29 -1.777,-2.285l-32.777,0.02c0,0 -7.328,-1.003 -7.328,-8.442c-0.081,-3.48 2.288,-9.561 2.288,-9.561Zm70.42,0l29.509,0c16.849,0 30.389,18.867 26.318,35.218l-5.41,20.062c-0.476,2.772 -2.069,4.429 -4.571,5.178l-12.932,-0c-2.022,-0.923 -3.301,-2.396 -2.55,-5.375l5.789,-22.068c0.891,-8.147 -2.398,-11.85 -8.327,-12.747l-13.008,-0.807l-9.62,36.556c-0.82,2.234 -1.908,4.2 -4.721,4.441l-12.662,-0c-1.921,-0 -3.255,-2.777 -2.655,-5.372l14.84,-55.086Zm85.202,-0.082l28.764,0.026c4.334,0.004 8.481,1.769 11.487,4.891c3.006,3.122 4.614,7.331 4.455,11.662l-0.102,2.781l-2.054,8.309c-1.295,5.858 -6.485,10.03 -12.484,10.037l-30.844,0.036c1.031,-9.499 4.889,-13.442 9.196,-13.442l13.567,0.021c2.431,-1.489 2.881,-4.733 0.341,-5.979l-18.015,-0.326c-3.265,-0 -4.899,2.022 -5.575,3.87l-4.411,16.345c-0.27,1 -0.057,2.069 0.575,2.89c0.633,0.82 1.612,1.298 2.648,1.292l41.005,-0.075l-3.062,11.758c-0.989,3.795 -4.416,6.444 -8.337,6.444l-37.601,-0c-5.267,-0 -10.217,-2.516 -13.321,-6.77c-3.104,-4.255 -3.989,-9.736 -2.382,-14.751l6.142,-23.131c3.199,-9.588 10.13,-14.561 20.008,-15.888Zm38.24,60.54l20.227,-75.606c0.674,-2.522 2.959,-4.276 5.569,-4.276l11.411,0c1.149,0 2.233,0.534 2.934,1.444c0.701,0.911 0.94,2.095 0.646,3.207l-14.485,54.759c-2.814,10.64 -11.768,18.532 -22.677,19.988l-3.625,0.484Zm58.945,-86.778c6.652,0 12.053,5.398 12.053,12.046c0,6.649 -5.401,12.047 -12.053,12.047c-6.652,-0 -12.052,-5.398 -12.052,-12.047c-0,-6.648 5.4,-12.046 12.052,-12.046Zm0,2.289c-5.388,0 -9.762,4.372 -9.762,9.757c-0,5.385 4.374,9.758 9.762,9.758c5.388,-0 9.763,-4.373 9.763,-9.758c0,-5.385 -4.375,-9.757 -9.763,-9.757Zm2.464,16.191l-2.876,-5.104l-1.715,0l-0,5.104l-2.926,0l0,-13.37l4.899,-0c1.745,-0 3.051,0.34 3.917,1.021c0.867,0.68 1.3,1.662 1.3,2.943c-0,0.906 -0.245,1.676 -0.734,2.31c-0.489,0.634 -1.167,1.08 -2.033,1.338l3.461,5.758l-3.293,0Zm-0.347,-9.286c0,-0.622 -0.205,-1.079 -0.615,-1.373c-0.41,-0.294 -1.064,-0.441 -1.963,-0.441l-1.666,-0l-0,3.726l1.745,0c1.666,0 2.499,-0.638 2.499,-1.912Z" style="fill:#d8d8d8;"/><g id="Logo-Online-Oficial"></g></svg>