<?xml version="1.0" encoding="UTF-8" standalone="no"?><!DOCTYPE svg PUBLIC "-//W3C//DTD SVG 1.1//EN" "http://www.w3.org/Graphics/SVG/1.1/DTD/svg11.dtd"><svg width="100%" height="100%" viewBox="0 0 400 400" version="1.1" xmlns="http://www.w3.org/2000/svg" xmlns:xlink="http://www.w3.org/1999/xlink" xml:space="preserve" xmlns:serif="http://www.serif.com/" style="fill-rule:evenodd;clip-rule:evenodd;stroke-linejoin:round;stroke-miterlimit:2;"><path d="M171.556,94.289c-0.141,-0.951 -0.458,-1.822 -0.95,-2.614c-0.493,-0.793 -1.11,-1.488 -1.849,-2.087c-0.74,-0.598 -1.576,-1.065 -2.509,-1.399c-0.933,-0.335 -1.911,-0.502 -2.932,-0.502c-1.866,-0 -3.451,0.361 -4.754,1.083c-1.302,0.721 -2.359,1.69 -3.169,2.905c-0.81,1.215 -1.399,2.597 -1.769,4.146c-0.37,1.549 -0.555,3.152 -0.555,4.807c0,1.584 0.185,3.125 0.555,4.621c0.37,1.497 0.959,2.844 1.769,4.041c0.81,1.197 1.867,2.157 3.169,2.879c1.303,0.722 2.888,1.083 4.754,1.083c2.536,-0 4.516,-0.775 5.943,-2.324c1.426,-1.55 2.297,-3.592 2.614,-6.128l8.029,0c-0.211,2.36 -0.757,4.49 -1.638,6.392c-0.88,1.901 -2.042,3.521 -3.486,4.859c-1.443,1.338 -3.134,2.36 -5.07,3.064c-1.937,0.704 -4.068,1.056 -6.392,1.056c-2.887,0 -5.484,-0.502 -7.791,-1.505c-2.306,-1.004 -4.252,-2.386 -5.836,-4.147c-1.585,-1.76 -2.8,-3.829 -3.645,-6.206c-0.845,-2.377 -1.268,-4.939 -1.268,-7.685c0,-2.817 0.423,-5.432 1.268,-7.844c0.845,-2.412 2.06,-4.516 3.645,-6.312c1.584,-1.796 3.53,-3.205 5.836,-4.226c2.307,-1.021 4.904,-1.532 7.791,-1.532c2.078,0 4.041,0.3 5.89,0.898c1.848,0.599 3.504,1.471 4.965,2.615c1.461,1.144 2.667,2.562 3.618,4.252c0.951,1.69 1.549,3.627 1.796,5.81l-8.029,0Zm22.66,12.519c0,1.267 0.229,2.341 0.687,3.222c0.458,0.88 1.065,1.593 1.822,2.139c0.757,0.546 1.646,0.951 2.668,1.215c1.021,0.264 2.077,0.396 3.169,0.396c0.739,-0 1.532,-0.062 2.377,-0.185c0.845,-0.123 1.637,-0.361 2.377,-0.713c0.739,-0.352 1.355,-0.836 1.848,-1.453c0.493,-0.616 0.74,-1.399 0.74,-2.35c-0,-1.021 -0.326,-1.849 -0.977,-2.483c-0.652,-0.633 -1.506,-1.162 -2.562,-1.584c-1.057,-0.423 -2.254,-0.793 -3.592,-1.109c-1.338,-0.317 -2.694,-0.67 -4.067,-1.057c-1.409,-0.352 -2.782,-0.783 -4.12,-1.294c-1.338,-0.511 -2.535,-1.171 -3.592,-1.981c-1.056,-0.81 -1.91,-1.822 -2.562,-3.037c-0.651,-1.215 -0.977,-2.685 -0.977,-4.41c0,-1.937 0.414,-3.619 1.241,-5.045c0.828,-1.426 1.911,-2.614 3.249,-3.565c1.338,-0.951 2.852,-1.655 4.542,-2.113c1.691,-0.458 3.381,-0.687 5.071,-0.687c1.972,0 3.865,0.221 5.678,0.661c1.814,0.44 3.425,1.153 4.833,2.139c1.409,0.986 2.527,2.245 3.355,3.777c0.827,1.531 1.241,3.389 1.241,5.572l-8.029,0c-0.07,-1.127 -0.308,-2.06 -0.713,-2.799c-0.405,-0.74 -0.942,-1.321 -1.611,-1.743c-0.669,-0.423 -1.435,-0.722 -2.298,-0.898c-0.862,-0.176 -1.804,-0.264 -2.826,-0.264c-0.669,-0 -1.338,0.07 -2.007,0.211c-0.669,0.141 -1.276,0.387 -1.822,0.739c-0.546,0.352 -0.995,0.793 -1.347,1.321c-0.352,0.528 -0.528,1.197 -0.528,2.007c-0,0.739 0.141,1.338 0.422,1.796c0.282,0.458 0.837,0.88 1.664,1.268c0.828,0.387 1.972,0.774 3.434,1.162c1.461,0.387 3.371,0.88 5.731,1.479c0.704,0.14 1.681,0.396 2.931,0.765c1.25,0.37 2.491,0.96 3.724,1.77c1.232,0.81 2.298,1.893 3.196,3.248c0.898,1.356 1.346,3.09 1.346,5.203c0,1.726 -0.334,3.328 -1.003,4.807c-0.669,1.479 -1.664,2.755 -2.984,3.829c-1.321,1.074 -2.958,1.911 -4.913,2.509c-1.954,0.599 -4.217,0.898 -6.787,0.898c-2.078,0 -4.094,-0.255 -6.048,-0.766c-1.954,-0.51 -3.68,-1.311 -5.176,-2.403c-1.497,-1.092 -2.685,-2.483 -3.566,-4.173c-0.88,-1.69 -1.303,-3.697 -1.268,-6.021l8.029,-0Zm37.291,-0c0,1.267 0.229,2.341 0.687,3.222c0.458,0.88 1.065,1.593 1.822,2.139c0.757,0.546 1.647,0.951 2.668,1.215c1.021,0.264 2.077,0.396 3.169,0.396c0.739,-0 1.532,-0.062 2.377,-0.185c0.845,-0.123 1.637,-0.361 2.377,-0.713c0.739,-0.352 1.355,-0.836 1.848,-1.453c0.493,-0.616 0.74,-1.399 0.74,-2.35c-0,-1.021 -0.326,-1.849 -0.977,-2.483c-0.652,-0.633 -1.506,-1.162 -2.562,-1.584c-1.056,-0.423 -2.254,-0.793 -3.592,-1.109c-1.338,-0.317 -2.694,-0.67 -4.067,-1.057c-1.409,-0.352 -2.782,-0.783 -4.12,-1.294c-1.338,-0.511 -2.535,-1.171 -3.592,-1.981c-1.056,-0.81 -1.91,-1.822 -2.562,-3.037c-0.651,-1.215 -0.977,-2.685 -0.977,-4.41c0,-1.937 0.414,-3.619 1.242,-5.045c0.827,-1.426 1.91,-2.614 3.248,-3.565c1.338,-0.951 2.852,-1.655 4.543,-2.113c1.69,-0.458 3.38,-0.687 5.07,-0.687c1.972,0 3.865,0.221 5.679,0.661c1.813,0.44 3.424,1.153 4.833,2.139c1.408,0.986 2.526,2.245 3.354,3.777c0.827,1.531 1.241,3.389 1.241,5.572l-8.029,0c-0.07,-1.127 -0.308,-2.06 -0.713,-2.799c-0.405,-0.74 -0.942,-1.321 -1.611,-1.743c-0.669,-0.423 -1.435,-0.722 -2.298,-0.898c-0.862,-0.176 -1.804,-0.264 -2.825,-0.264c-0.669,-0 -1.339,0.07 -2.008,0.211c-0.669,0.141 -1.276,0.387 -1.822,0.739c-0.546,0.352 -0.995,0.793 -1.347,1.321c-0.352,0.528 -0.528,1.197 -0.528,2.007c-0,0.739 0.141,1.338 0.423,1.796c0.281,0.458 0.836,0.88 1.663,1.268c0.828,0.387 1.972,0.774 3.434,1.162c1.461,0.387 3.371,0.88 5.731,1.479c0.704,0.14 1.681,0.396 2.931,0.765c1.25,0.37 2.492,0.96 3.724,1.77c1.233,0.81 2.298,1.893 3.196,3.248c0.898,1.356 1.347,3.09 1.347,5.203c-0,1.726 -0.335,3.328 -1.004,4.807c-0.669,1.479 -1.664,2.755 -2.984,3.829c-1.321,1.074 -2.958,1.911 -4.913,2.509c-1.954,0.599 -4.216,0.898 -6.787,0.898c-2.078,0 -4.094,-0.255 -6.048,-0.766c-1.954,-0.51 -3.68,-1.311 -5.176,-2.403c-1.497,-1.092 -2.685,-2.483 -3.566,-4.173c-0.88,-1.69 -1.303,-3.697 -1.267,-6.021l8.028,-0Zm-110.931,34.555l157.873,0.029l-0.045,30.032l-72.455,30.137l66.497,0.016l-8.02,95.892l-62.959,20.037l-65.604,-18.303l-4.163,-49.063l30.599,-0.038l2.552,23.68l33.417,8.584l36.676,-7.345l3.869,-41.399l-108.321,-0.178l-4.305,-29.777l73.183,-31.437l-74.464,-0.147l-4.33,-30.72Z" style="fill:#d8d8d8;"/></svg>