<?xml version="1.0" encoding="UTF-8" standalone="no"?>
<!DOCTYPE svg PUBLIC "-//W3C//DTD SVG 1.1//EN" "http://www.w3.org/Graphics/SVG/1.1/DTD/svg11.dtd">
<svg width="100%" height="100%" viewBox="0 0 193 400" version="1.1" xmlns="http://www.w3.org/2000/svg" xmlns:xlink="http://www.w3.org/1999/xlink" xml:space="preserve" xmlns:serif="http://www.serif.com/" style="fill-rule:evenodd;clip-rule:evenodd;stroke-linejoin:round;stroke-miterlimit:2;">
    <g transform="matrix(1,0,0,1,-68.7434,0.88978)">
        <path d="M137.787,94.289C137.646,93.338 137.329,92.467 136.836,91.675C136.343,90.882 135.727,90.187 134.988,89.588C134.248,88.99 133.412,88.523 132.479,88.189C131.545,87.854 130.568,87.687 129.547,87.687C127.681,87.687 126.096,88.048 124.793,88.77C123.49,89.491 122.434,90.46 121.624,91.675C120.814,92.89 120.224,94.272 119.855,95.821C119.485,97.37 119.3,98.973 119.3,100.628C119.3,102.212 119.485,103.753 119.855,105.249C120.224,106.746 120.814,108.093 121.624,109.29C122.434,110.487 123.49,111.447 124.793,112.169C126.096,112.891 127.681,113.252 129.547,113.252C132.082,113.252 134.063,112.477 135.489,110.928C136.916,109.378 137.787,107.336 138.104,104.8L146.133,104.8C145.921,107.16 145.376,109.29 144.495,111.192C143.615,113.093 142.453,114.713 141.009,116.051C139.565,117.389 137.875,118.411 135.938,119.115C134.002,119.819 131.871,120.171 129.547,120.171C126.66,120.171 124.063,119.669 121.756,118.666C119.45,117.662 117.504,116.28 115.919,114.519C114.335,112.759 113.12,110.69 112.275,108.313C111.43,105.936 111.007,103.374 111.007,100.628C111.007,97.811 111.43,95.196 112.275,92.784C113.12,90.372 114.335,88.268 115.919,86.472C117.504,84.676 119.45,83.267 121.756,82.246C124.063,81.225 126.66,80.714 129.547,80.714C131.625,80.714 133.588,81.014 135.437,81.612C137.285,82.211 138.94,83.083 140.402,84.227C141.863,85.371 143.069,86.789 144.02,88.479C144.971,90.169 145.569,92.106 145.816,94.289L137.787,94.289ZM160.447,106.808C160.447,108.075 160.676,109.149 161.134,110.03C161.591,110.91 162.199,111.623 162.956,112.169C163.713,112.715 164.602,113.12 165.623,113.384C166.645,113.648 167.701,113.78 168.793,113.78C169.532,113.78 170.324,113.718 171.169,113.595C172.015,113.472 172.807,113.234 173.546,112.882C174.286,112.53 174.902,112.046 175.395,111.429C175.888,110.813 176.135,110.03 176.135,109.079C176.135,108.058 175.809,107.23 175.157,106.596C174.506,105.963 173.652,105.434 172.596,105.012C171.539,104.589 170.342,104.219 169.004,103.903C167.666,103.586 166.31,103.233 164.937,102.846C163.528,102.494 162.155,102.063 160.817,101.552C159.479,101.041 158.281,100.381 157.225,99.571C156.169,98.761 155.315,97.749 154.663,96.534C154.012,95.319 153.686,93.849 153.686,92.124C153.686,90.187 154.1,88.505 154.927,87.079C155.755,85.653 156.838,84.465 158.176,83.514C159.514,82.563 161.028,81.859 162.718,81.401C164.408,80.943 166.099,80.714 167.789,80.714C169.761,80.714 171.654,80.935 173.467,81.375C175.281,81.815 176.892,82.528 178.3,83.514C179.709,84.5 180.827,85.759 181.654,87.291C182.482,88.822 182.896,90.68 182.896,92.863L174.867,92.863C174.796,91.736 174.559,90.803 174.154,90.064C173.749,89.324 173.212,88.743 172.543,88.321C171.874,87.898 171.108,87.599 170.245,87.423C169.382,87.247 168.44,87.159 167.419,87.159C166.75,87.159 166.081,87.229 165.412,87.37C164.743,87.511 164.136,87.757 163.59,88.109C163.044,88.461 162.595,88.902 162.243,89.43C161.891,89.958 161.715,90.627 161.715,91.437C161.715,92.176 161.856,92.775 162.137,93.233C162.419,93.691 162.974,94.113 163.801,94.501C164.629,94.888 165.773,95.275 167.234,95.663C168.696,96.05 170.606,96.543 172.965,97.142C173.67,97.282 174.647,97.538 175.897,97.907C177.147,98.277 178.388,98.867 179.621,99.677C180.853,100.487 181.918,101.57 182.816,102.925C183.714,104.281 184.163,106.015 184.163,108.128C184.163,109.854 183.829,111.456 183.16,112.935C182.491,114.414 181.496,115.69 180.175,116.764C178.855,117.838 177.217,118.675 175.263,119.273C173.309,119.872 171.046,120.171 168.476,120.171C166.398,120.171 164.382,119.916 162.428,119.405C160.473,118.895 158.748,118.094 157.251,117.002C155.755,115.91 154.566,114.519 153.686,112.829C152.806,111.139 152.383,109.132 152.418,106.808L160.447,106.808ZM197.738,106.808C197.738,108.075 197.967,109.149 198.425,110.03C198.883,110.91 199.49,111.623 200.247,112.169C201.004,112.715 201.893,113.12 202.914,113.384C203.936,113.648 204.992,113.78 206.084,113.78C206.823,113.78 207.616,113.718 208.461,113.595C209.306,113.472 210.098,113.234 210.838,112.882C211.577,112.53 212.193,112.046 212.686,111.429C213.179,110.813 213.426,110.03 213.426,109.079C213.426,108.058 213.1,107.23 212.449,106.596C211.797,105.963 210.943,105.434 209.887,105.012C208.83,104.589 207.633,104.219 206.295,103.903C204.957,103.586 203.601,103.233 202.228,102.846C200.819,102.494 199.446,102.063 198.108,101.552C196.77,101.041 195.572,100.381 194.516,99.571C193.46,98.761 192.606,97.749 191.954,96.534C191.303,95.319 190.977,93.849 190.977,92.124C190.977,90.187 191.391,88.505 192.218,87.079C193.046,85.653 194.129,84.465 195.467,83.514C196.805,82.563 198.319,81.859 200.009,81.401C201.7,80.943 203.39,80.714 205.08,80.714C207.052,80.714 208.945,80.935 210.758,81.375C212.572,81.815 214.183,82.528 215.591,83.514C217,84.5 218.118,85.759 218.945,87.291C219.773,88.822 220.187,90.68 220.187,92.863L212.158,92.863C212.088,91.736 211.85,90.803 211.445,90.064C211.04,89.324 210.503,88.743 209.834,88.321C209.165,87.898 208.399,87.599 207.536,87.423C206.674,87.247 205.732,87.159 204.71,87.159C204.041,87.159 203.372,87.229 202.703,87.37C202.034,87.511 201.427,87.757 200.881,88.109C200.335,88.461 199.886,88.902 199.534,89.43C199.182,89.958 199.006,90.627 199.006,91.437C199.006,92.176 199.147,92.775 199.428,93.233C199.71,93.691 200.265,94.113 201.092,94.501C201.92,94.888 203.064,95.275 204.526,95.663C205.987,96.05 207.897,96.543 210.257,97.142C210.961,97.282 211.938,97.538 213.188,97.907C214.438,98.277 215.679,98.867 216.912,99.677C218.144,100.487 219.21,101.57 220.108,102.925C221.005,104.281 221.454,106.015 221.454,108.128C221.454,109.854 221.12,111.456 220.451,112.935C219.782,114.414 218.787,115.69 217.466,116.764C216.146,117.838 214.509,118.675 212.554,119.273C210.6,119.872 208.337,120.171 205.767,120.171C203.689,120.171 201.673,119.916 199.719,119.405C197.765,118.895 196.039,118.094 194.542,117.002C193.046,115.91 191.857,114.519 190.977,112.829C190.097,111.139 189.674,109.132 189.709,106.808L197.738,106.808ZM86.807,141.363L244.679,141.392L244.634,171.424L172.18,201.561L238.677,201.577L230.656,297.469L167.698,317.506L102.094,299.203L97.931,250.14L128.53,250.102L131.082,273.782L164.499,282.366L201.174,275.021L205.044,233.622L96.722,233.444L92.418,203.667L165.601,172.23L91.137,172.083L86.807,141.363Z" style="fill:rgb(216,216,216);"/>
    </g>
</svg>
