<?xml version="1.0" encoding="UTF-8" standalone="no"?><!DOCTYPE svg PUBLIC "-//W3C//DTD SVG 1.1//EN" "http://www.w3.org/Graphics/SVG/1.1/DTD/svg11.dtd"><svg width="100%" height="100%" viewBox="0 0 400 400" version="1.1" xmlns="http://www.w3.org/2000/svg" xmlns:xlink="http://www.w3.org/1999/xlink" xml:space="preserve" xmlns:serif="http://www.serif.com/" style="fill-rule:evenodd;clip-rule:evenodd;stroke-linejoin:round;stroke-miterlimit:2;"><path id="Cubase" d="M285.089,158.833l14.588,0l14.357,92.585l-11.899,0l-2.145,-17.2l-13.961,0.004l-2.331,17.196l-11.533,0l12.924,-92.585Zm6.672,17.477l-0.383,12.803l-4.193,34.031l11.055,-0.057l-4.179,-29.533c-1.185,-6.035 -1.18,-12.198 -1.23,-17.248l-1.07,0.004Zm-63.947,-17.477l20.366,0c4.13,0 9.236,0.227 12.156,3.147c2.92,2.92 3.261,8.044 3.261,12.174c0,3.157 0.078,5.307 0.079,9.03c-0,1.226 -0.025,5.274 -0.143,7.747c-0.156,3.288 -0.533,6.771 -2.608,8.893c-1.443,1.475 -3.561,2.352 -6.653,2.165c-0,0.1 0.083,0.42 0.083,0.816c9.309,-0.171 9.397,7.829 9.397,11.366l-0,20.799c-0,4.362 -0.463,9.817 -3.547,12.901c-3.085,3.085 -8.54,3.547 -12.902,3.547l-19.507,0l0.018,-92.585Zm11.761,48.806l0.017,32.23l8.48,-0.017c2.658,-0.137 3.435,-1.22 3.736,-5.318c-0,-0 0.479,-3.374 0.264,-11.565c-0.215,-8.192 -0.368,-9.974 -0.368,-9.974l-0.156,-1.624c-0.201,-2.105 -1.968,-3.713 -4.082,-3.717l-7.891,-0.015Zm0.103,-37.969l-0.201,28.168l3.841,-0.116c2.206,-0.067 4.882,0.089 6.522,-1.136c2.057,-1.536 1.963,-8.307 1.894,-10.927c-0.142,-5.406 -0.337,-8.546 -0.436,-12.299c-0.044,-1.674 -0.904,-3.459 -2.962,-3.459c-3.451,0 -8.658,-0.231 -8.658,-0.231Zm121.302,-10.837l30.401,0l-0.047,11.533l-17.963,0.042l-0.052,27.159l16.237,-0.052l-0.005,11.308l-16.105,-0.124l-0.125,31.061l18.121,-0.025l-0.086,11.683l-30.454,0l0.078,-92.585Zm-191.613,53.919l0,0.124c0,4.288 0.16,9.955 0.008,15.207c-0.57,19.784 -9.774,23.806 -20.196,23.806l-1.726,-0c-9.872,-0 -17.887,-5.971 -17.887,-24.227l-0,-46.569c-0,-14.533 6.72,-22.399 17.887,-23.368l4.246,-0c3.743,-0 7.346,1.088 10.22,3.057c4.705,3.224 7.234,10.502 7.234,16.631c-0,-0 0.055,6.693 0.11,14.537l-12.01,0l0,-16.05c0,-4.229 -3.433,-7.663 -7.663,-7.663c-4.229,0 -7.663,3.434 -7.663,7.663l0.091,58.741c-0,4.229 2.213,6.719 7.572,6.784c4.229,0.051 7.663,-3.434 7.663,-7.663l0,-21.01l12.114,0Zm35.781,-54.153l12.207,0l-0.201,76.034c-0.026,9.699 -7.921,17.573 -17.62,17.573l-3.683,0c-9.699,0 -17.552,-7.874 -17.527,-17.573l0.202,-76.034l12.278,0l0,76.651c0,3.958 3.214,7.172 7.172,7.172c3.958,-0 7.172,-3.214 7.172,-7.172l-0,-76.651Zm137.624,30.319c-0,-0 0.068,-4.399 0.068,-13.94c0,-9.541 -4.344,-8.575 -4.917,-8.575c-0.573,0 -5.824,-1.478 -5.997,8.516c-0.174,9.993 3.755,15.3 5.277,17.91c1.521,2.61 9.698,14.523 12.34,18.881c2.643,4.358 5.257,13.003 5.116,17.841c-0.141,4.837 -0.509,12.603 -4.907,17.616c-4.399,5.013 -10.813,5.317 -13.45,5.317c-2.637,0 -6.408,0.427 -12.056,-4.2c-5.648,-4.626 -5.254,-13.209 -5.254,-13.209l-0.033,-18.001l11.221,0.078c0,-0 -0.01,10.451 -0.037,18.479c-0.026,8.027 5.982,7.173 6.258,7.173c0.275,0 5.885,0.431 5.885,-8.623c0,-10.654 -2.483,-14.502 -3.082,-15.923c-0.599,-1.421 -1.152,-2.433 -10.871,-17.231c-2.778,-4.231 -4.896,-7.664 -6.181,-10.985c-3.209,-8.295 -2.435,-14.953 -2.435,-14.953c0,0 -0.096,-6.103 3.706,-11.62c2.692,-3.906 7.628,-6.621 14.742,-6.621c17.162,-0 15.633,14.696 15.633,14.696l0.023,17.367l-11.049,0.007Zm-255.209,51.822l-21.468,21.468l-57.537,-57.537l57.537,-57.537l18.337,18.337c-19.376,1.56 -34.636,17.799 -34.636,37.573c0,20.805 16.891,37.696 37.696,37.696l0.071,0Zm-0.071,-53.11c8.508,-0 15.415,6.907 15.415,15.414c0,8.508 -6.907,15.415 -15.415,15.415c-8.507,-0 -15.414,-6.907 -15.414,-15.415c-0,-8.507 6.907,-15.414 15.414,-15.414Z" style="fill:#d8d8d8;"/></svg>