<?xml version="1.0" encoding="UTF-8" standalone="no"?><!DOCTYPE svg PUBLIC "-//W3C//DTD SVG 1.1//EN" "http://www.w3.org/Graphics/SVG/1.1/DTD/svg11.dtd"><svg width="100%" height="100%" viewBox="0 0 400 400" version="1.1" xmlns="http://www.w3.org/2000/svg" xmlns:xlink="http://www.w3.org/1999/xlink" xml:space="preserve" xmlns:serif="http://www.serif.com/" style="fill-rule:evenodd;clip-rule:evenodd;stroke-linejoin:round;stroke-miterlimit:2;"><path id="AffinityDesigner" d="M211.94,199.557l-0,16.622l-3.566,0l-0,-36.31l19.543,0l-0,2.86l-15.977,0l-0,13.968l9.108,0l-0,2.86l-9.108,0Zm26.723,0l0,16.622l-3.566,0l0,-36.31l19.543,0l0,2.86l-15.977,0l0,13.968l9.108,0l-0,2.86l-9.108,0Zm26.075,-19.68l0,36.302l-3.339,0l-0,-36.302l3.339,0Zm47.522,0l0,36.302l-3.339,0l-0,-36.302l3.339,0Zm16.542,3.019l-9.611,-0l-0,-3.019l22.562,0l0,3.019l-9.611,-0l-0,33.283l-3.34,0l0,-33.283Zm-53.672,2.215l-0,31.068l-3.34,0l-0,-36.302l3.34,0l-0,0.168l0.221,-0.168l23.3,30.705l-0,-30.705l3.339,0l0,36.302l-3.339,0l-0,-0.072l-23.521,-30.996Zm-98.977,26.059l-2.178,5.009l-3.889,0l15.787,-36.302l3.31,0l16.631,36.302l-3.95,0l-14.308,-31.231l-10.167,23.38l16.726,0.009l2.493,2.843l-20.455,-0.01Zm184.086,-4.877l-15.898,-26.424l4.111,0l13.818,22.967l13.04,-22.967l4.05,0l-15.459,27.227l0,9.083l-3.662,0l0,-9.886Zm-339.599,18.086l26.656,-0c9.05,-0 16.069,3.21 21.057,9.632c4.45,5.794 6.675,13.216 6.675,22.266c0,6.989 -1.314,13.306 -3.942,18.951c-4.63,9.975 -12.589,14.963 -23.879,14.963l-26.567,0l-0,-65.812Zm24.864,58.196c3.017,0 5.496,-0.314 7.437,-0.941c3.465,-1.165 6.302,-3.405 8.512,-6.72c1.763,-2.658 3.032,-6.063 3.809,-10.215c0.448,-2.478 0.672,-4.778 0.672,-6.899c-0,-8.154 -1.621,-14.485 -4.861,-18.995c-3.241,-4.51 -8.46,-6.765 -15.658,-6.765l-15.815,-0l0,50.535l15.904,0Zm59.899,-41.441c3.405,0 6.705,0.799 9.901,2.397c3.196,1.598 5.63,3.666 7.303,6.205c1.612,2.419 2.688,5.242 3.225,8.467c0.478,2.211 0.717,5.735 0.717,10.573l-35.169,0c0.15,4.869 1.3,8.774 3.45,11.716c2.151,2.942 5.481,4.413 9.991,4.413c4.211,-0 7.571,-1.389 10.08,-4.167c1.433,-1.613 2.449,-3.479 3.046,-5.6l7.93,0c-0.209,1.762 -0.903,3.726 -2.083,5.891c-1.18,2.166 -2.502,3.935 -3.965,5.309c-2.449,2.39 -5.481,4.002 -9.095,4.839c-1.941,0.478 -4.136,0.717 -6.585,0.717c-5.974,-0 -11.036,-2.173 -15.188,-6.519c-4.151,-4.346 -6.227,-10.431 -6.227,-18.256c-0,-7.706 2.091,-13.963 6.272,-18.772c4.181,-4.808 9.647,-7.213 16.397,-7.213Zm12.858,21.236c-0.329,-3.495 -1.09,-6.287 -2.285,-8.378c-2.21,-3.883 -5.899,-5.824 -11.066,-5.824c-3.703,-0 -6.809,1.337 -9.318,4.01c-2.509,2.673 -3.838,6.07 -3.988,10.192l26.657,-0Zm22.983,12.768c0.239,2.688 0.911,4.749 2.016,6.183c2.031,2.598 5.555,3.897 10.573,3.897c2.986,0 5.615,-0.649 7.885,-1.949c2.27,-1.299 3.405,-3.307 3.405,-6.025c-0,-2.061 -0.911,-3.629 -2.733,-4.704c-1.165,-0.657 -3.465,-1.419 -6.9,-2.285l-6.406,-1.613c-4.092,-1.016 -7.109,-2.15 -9.05,-3.405c-3.464,-2.18 -5.197,-5.197 -5.197,-9.05c0,-4.539 1.635,-8.213 4.906,-11.021c3.27,-2.807 7.668,-4.211 13.194,-4.211c7.228,0 12.439,2.121 15.635,6.362c2.001,2.688 2.972,5.585 2.912,8.691l-7.616,0c-0.149,-1.822 -0.791,-3.479 -1.926,-4.973c-1.852,-2.12 -5.063,-3.181 -9.632,-3.181c-3.047,0 -5.354,0.583 -6.922,1.748c-1.568,1.164 -2.352,2.703 -2.352,4.614c-0,2.091 1.03,3.763 3.091,5.018c1.195,0.746 2.957,1.404 5.287,1.971l5.331,1.299c5.794,1.404 9.677,2.763 11.648,4.077c3.136,2.061 4.704,5.302 4.704,9.722c0,4.271 -1.62,7.96 -4.861,11.066c-3.24,3.106 -8.176,4.659 -14.806,4.659c-7.139,-0 -12.194,-1.62 -15.166,-4.861c-2.971,-3.24 -4.562,-7.25 -4.771,-12.029l7.751,0Zm41.082,-32.705l8.199,0l-0,47.758l-8.199,0l0,-47.758Zm0,-18.054l8.199,-0l-0,9.139l-8.199,0l0,-9.139Zm37.319,16.979c3.763,0 7.049,0.926 9.856,2.778c1.524,1.045 3.077,2.568 4.66,4.57l-0,-6.049l7.437,0l-0,43.636c-0,6.093 -0.896,10.902 -2.688,14.426c-3.346,6.511 -9.663,9.767 -18.951,9.767c-5.167,-0 -9.513,-1.157 -13.037,-3.472c-3.525,-2.315 -5.496,-5.936 -5.914,-10.864l8.199,-0c0.388,2.15 1.164,3.808 2.329,4.973c1.822,1.792 4.689,2.688 8.602,2.688c6.182,-0 10.229,-2.181 12.141,-6.541c1.135,-2.569 1.658,-7.154 1.568,-13.754c-1.613,2.449 -3.554,4.271 -5.824,5.466c-2.27,1.194 -5.272,1.792 -9.005,1.792c-5.197,-0 -9.744,-1.845 -13.642,-5.533c-3.898,-3.689 -5.846,-9.789 -5.846,-18.301c-0,-8.035 1.963,-14.307 5.891,-18.817c3.927,-4.51 8.669,-6.765 14.224,-6.765Zm14.516,24.641c-0,-5.944 -1.225,-10.349 -3.674,-13.217c-2.449,-2.867 -5.57,-4.3 -9.363,-4.3c-5.675,-0 -9.558,2.658 -11.649,7.974c-1.105,2.838 -1.657,6.556 -1.657,11.156c-0,5.406 1.097,9.52 3.293,12.342c2.195,2.823 5.144,4.234 8.848,4.234c5.794,-0 9.871,-2.614 12.23,-7.84c1.315,-2.957 1.972,-6.407 1.972,-10.349Zm19.578,-23.79l7.661,0l-0,6.81c2.269,-2.807 4.674,-4.823 7.212,-6.048c2.539,-1.224 5.362,-1.837 8.468,-1.837c6.81,0 11.409,2.375 13.798,7.124c1.315,2.598 1.972,6.317 1.972,11.155l-0,30.778l-8.199,0l0,-30.24c0,-2.927 -0.433,-5.287 -1.299,-7.079c-1.434,-2.987 -4.032,-4.48 -7.795,-4.48c-1.912,-0 -3.48,0.194 -4.705,0.582c-2.21,0.657 -4.151,1.972 -5.824,3.943c-1.344,1.583 -2.217,3.218 -2.62,4.906c-0.404,1.687 -0.605,4.099 -0.605,7.235l-0,25.133l-8.064,0l-0,-47.982Zm71.009,-1.075c3.405,0 6.705,0.799 9.901,2.397c3.196,1.598 5.63,3.666 7.302,6.205c1.613,2.419 2.688,5.242 3.226,8.467c0.478,2.211 0.717,5.735 0.717,10.573l-35.169,0c0.15,4.869 1.299,8.774 3.45,11.716c2.15,2.942 5.481,4.413 9.99,4.413c4.212,-0 7.572,-1.389 10.081,-4.167c1.433,-1.613 2.449,-3.479 3.046,-5.6l7.93,0c-0.209,1.762 -0.904,3.726 -2.083,5.891c-1.18,2.166 -2.502,3.935 -3.965,5.309c-2.449,2.39 -5.481,4.002 -9.095,4.839c-1.941,0.478 -4.136,0.717 -6.586,0.717c-5.973,-0 -11.035,-2.173 -15.187,-6.519c-4.152,-4.346 -6.227,-10.431 -6.227,-18.256c-0,-7.706 2.09,-13.963 6.272,-18.772c4.181,-4.808 9.647,-7.213 16.397,-7.213Zm12.858,21.236c-0.329,-3.495 -1.09,-6.287 -2.285,-8.378c-2.21,-3.883 -5.899,-5.824 -11.066,-5.824c-3.703,-0 -6.81,1.337 -9.318,4.01c-2.509,2.673 -3.838,6.07 -3.988,10.192l26.657,-0Zm18.413,-20.161l7.661,0l-0,8.289c0.627,-1.613 2.165,-3.577 4.614,-5.892c2.449,-2.314 5.272,-3.472 8.468,-3.472c0.149,0 0.403,0.015 0.761,0.045c0.359,0.03 0.971,0.09 1.837,0.179l0,8.512c-0.478,-0.089 -0.918,-0.149 -1.322,-0.179c-0.403,-0.03 -0.843,-0.045 -1.321,-0.045c-4.062,0 -7.183,1.307 -9.364,3.92c-2.18,2.614 -3.27,5.623 -3.27,9.028l0,27.597l-8.064,0l-0,-47.982Zm-217.043,-154.267c3.561,-0 6.977,1.377 9.496,3.828c2.519,2.451 3.933,5.776 3.933,9.242l0,102.097c0,3.467 -1.414,6.791 -3.933,9.242c-2.519,2.451 -5.935,3.828 -9.496,3.828l-104.906,0c-3.562,0 -6.978,-1.377 -9.497,-3.828c-2.518,-2.451 -3.933,-5.775 -3.933,-9.242l-0,-102.097c-0,-3.466 1.415,-6.791 3.933,-9.242c2.519,-2.451 5.935,-3.828 9.497,-3.828l104.906,-0Zm-40.308,9.371l-19.352,-0l-48.945,82.59l-0,21.241c-0,3.15 2.374,5.702 5.609,5.702l44.872,0l-23.721,-39.782l41.537,-69.751Zm-12.724,109.533l51.121,0c3.236,0 5.859,-2.552 5.859,-5.702l-0,-31.519l-79.418,-0.249l22.438,37.47Zm56.98,-41.865l-0,-61.967c-0,-3.149 -2.623,-5.701 -5.859,-5.701l-33.54,-0l-22.814,38.404l17.292,29.094l44.921,0.17Zm-64.756,-24.982l-9.702,16.331c-1.025,1.727 -1.028,3.854 -0.008,5.582c1.02,1.729 2.91,2.799 4.959,2.806l19.41,0.074l-14.659,-24.793Z" style="fill:#d8d8d8;"/></svg>