<?xml version="1.0" encoding="UTF-8" standalone="no"?><!DOCTYPE svg PUBLIC "-//W3C//DTD SVG 1.1//EN" "http://www.w3.org/Graphics/SVG/1.1/DTD/svg11.dtd"><svg width="100%" height="100%" viewBox="0 0 400 400" version="1.1" xmlns="http://www.w3.org/2000/svg" xmlns:xlink="http://www.w3.org/1999/xlink" xml:space="preserve" xmlns:serif="http://www.serif.com/" style="fill-rule:evenodd;clip-rule:evenodd;stroke-linejoin:round;stroke-miterlimit:2;"><path d="M196.823,242.506c-41.294,-1.666 -74.306,-35.642 -74.306,-77.25c0,-42.67 34.718,-77.314 77.483,-77.314c42.765,-0 77.483,34.644 77.483,77.314c-0,42.67 -34.718,77.314 -77.483,77.314c-0.95,-0 -1.897,-0.018 -2.839,-0.052l-0.089,0.052l-0.178,-0.057c0.049,0.002 0.076,-0.002 0.076,-0.002l-0.039,-0.001l-0.052,-0.002l-0.406,-0.13c0.14,0.081 0.262,0.115 0.35,0.128Zm0.071,0.007c-0.02,-0.001 -0.044,-0.003 -0.071,-0.007l0.056,0.002l0.015,0.005Zm-27.167,-58.475l-0.294,0.51l0.005,0.02l0.295,-0.521l-0.006,-0.009Zm30.615,53.87c40.03,-0.184 72.474,-32.667 72.474,-72.652c-0,-11.439 -2.655,-22.264 -7.384,-31.895l-47.498,0.001c11.166,6.27 18.715,18.209 18.715,31.894c0,6.343 -1.622,12.311 -4.474,17.514c-0.257,0.469 -0.524,0.932 -0.801,1.388l-31.032,53.75Zm-30.883,-53.338c0.059,0.003 0.244,0 0.479,-0.136l-0.479,0.136Zm-0.75,-0.276c-0.063,-0.062 -0.118,-0.133 -0.163,-0.211l-31.725,-54.95c-6.13,10.642 -9.637,22.977 -9.637,36.123c0,38.434 29.977,69.938 67.854,72.486l23.705,-41.06c-5.485,3.267 -11.896,5.144 -18.743,5.144c-13.241,0 -24.851,-7.021 -31.291,-17.532Zm30.471,-54.608c-0,-0.553 -0.448,-1.001 -1.001,-1.001l64.74,0c-12.633,-21.574 -36.091,-36.082 -62.919,-36.082c-25.116,0 -47.279,12.716 -60.371,32.041l23.725,41.092c-0.002,-0.16 -0.003,-0.32 -0.003,-0.48c-0,-19.557 15.418,-35.55 34.778,-36.524l0.025,1.001l0.025,-0.002l0,-0.045l1.001,-0Zm0.82,3.675c-17.643,0 -31.968,14.291 -31.968,31.895c0,17.604 14.325,31.894 31.968,31.894c11.666,0 21.881,-6.248 27.464,-15.572l0.508,-0.879c2.546,-4.576 3.996,-9.842 3.996,-15.443c-0,-17.604 -14.325,-31.895 -31.968,-31.895Zm0,5.254c14.735,0 26.697,11.938 26.697,26.641c0,14.702 -11.962,26.64 -26.697,26.64c-14.735,0 -26.697,-11.938 -26.697,-26.64c-0,-14.703 11.962,-26.641 26.697,-26.641Zm0,4.855c-12.051,0 -21.836,9.761 -21.836,21.786c0,12.024 9.785,21.785 21.836,21.785c12.051,0 21.836,-9.761 21.836,-21.785c-0,-12.025 -9.785,-21.786 -21.836,-21.786Zm-2.897,99.046l0.001,-0.014l-0.008,0.001l0.007,0.013Zm-143.164,11.171l-2.591,7.227c-3.41,-2.25 -7.091,-3.409 -11.182,-3.409c-8.319,-0 -13.842,5.727 -13.842,15c0,9.409 5.387,15.341 13.978,15.341c4.364,0 8.523,-1.636 11.659,-3.818l1.568,7.636c-3.409,2.046 -8.727,3.341 -13.568,3.341c-13.091,0 -22.023,-8.25 -22.023,-22.227c-0,-13.637 8.932,-22.432 22.228,-22.432c4.977,-0 10.091,1.295 13.773,3.341Zm35.318,40.296l-8.045,-0l-0,-19.16c-0,-4.636 -1.841,-6.204 -5.25,-6.204c-3,-0 -5.591,1.431 -7.159,2.931l-0,22.433l-8.046,-0l-0,-45.547l8.046,-1.091l-0,19.16c2.795,-3.068 6.545,-4.977 10.636,-4.977c6.068,-0 9.818,4.091 9.818,10.841l0,21.614Zm16.433,-19.432l-0,19.432l-8.046,-0l-0,-31.228l8.046,-1.159l-0,5.113c1.977,-3.341 4.5,-5.181 8.182,-5.181c1.909,-0 3.886,0.409 5.591,1.431l-1.773,7.228c-1.5,-0.818 -3,-1.227 -4.5,-1.227c-2.796,-0 -5.387,1.772 -7.5,5.591Zm48.614,3.681c0,10.296 -7.091,16.773 -16.296,16.773c-9.204,0 -15.886,-6.272 -15.886,-16.704c-0,-10.364 7.023,-16.842 16.295,-16.842c9.273,0 15.887,6.41 15.887,16.773Zm-7.977,0.069c-0,-6.069 -3,-10.364 -8.182,-10.364c-5.25,-0 -8.114,4.227 -8.114,10.295c-0,6.001 3,10.228 8.25,10.228c5.182,-0 8.046,-4.091 8.046,-10.159Zm62.251,15.682l-8.046,-0l0,-19.092c0,-4.636 -1.841,-6.272 -5.182,-6.272c-2.795,-0 -4.977,1.431 -6.545,2.795l-0,22.569l-8.046,-0l0,-19.092c0,-4.636 -1.773,-6.272 -5.114,-6.272c-2.863,-0 -5.045,1.159 -6.545,2.591l-0,22.773l-8.046,-0l0,-31.296l8.046,-1.091l-0,4.432c2.932,-2.932 6.136,-4.5 10.023,-4.5c3.818,-0 7.023,1.84 8.591,5.386c3.136,-3.409 6.886,-5.386 11.182,-5.386c5.932,-0 9.682,4.091 9.682,10.909l-0,21.546Zm14.386,-14.182l0,0.204c0.341,5.114 3.819,8.591 9.41,8.591c3.341,0 6.954,-1.091 9.818,-2.863l1.023,6.681c-3,1.637 -7.159,2.591 -11.387,2.591c-10.091,0 -16.773,-6.409 -16.773,-16.432c0,-10.227 6.818,-17.045 16.228,-17.045c8.318,-0 12.955,5.045 12.955,12.75c-0,1.704 -0.273,3.886 -0.682,5.25l-20.592,0.273Zm0.205,-4.705l13.5,-0.068l0,-0.546c0,-4.227 -1.841,-6.886 -6,-6.886c-4.432,-0 -7.091,3.614 -7.5,7.5Zm49.557,8.203c0,6.639 -4.145,10.684 -11.324,10.684l-5.561,-0l-0,-21.065l5.729,-0c6.91,-0 11.156,4.179 11.156,10.381Zm-2.157,0.168c0,-5.359 -3.37,-8.561 -9.133,-8.561l-3.438,0l-0,17.088l3.505,0c5.393,0 9.066,-2.764 9.066,-8.527Zm7.28,2.865l0,0.168c0.068,3.472 2.157,5.966 5.393,5.966c1.685,0 3.303,-0.506 4.483,-1.281l0.404,1.921c-1.314,0.809 -3.033,1.315 -4.954,1.315c-4.449,-0 -7.449,-3.337 -7.449,-8.022c-0,-4.853 3.101,-8.291 7.28,-8.291c3.404,0 5.629,2.225 5.629,5.696c-0,0.809 -0.135,1.786 -0.337,2.46l-10.449,0.068Zm0.135,-1.652l8.561,-0.033c0.034,-0.169 0.034,-0.506 0.034,-0.674c-0,-2.36 -1.281,-3.977 -3.708,-3.977c-2.763,-0 -4.55,2.123 -4.887,4.684Zm26.491,-6.134l-6.066,15.47l-1.888,0l-6.1,-15.47l2.258,0l4.887,12.74l4.719,-12.74l2.19,0Zm25.582,-3.606l-7.415,-0l-0,19.043l-2.157,-0l-0,-19.043l-7.415,-0l0,-2.022l16.987,-0l-0,2.022Zm14.021,11.291c-0,4.921 -3.303,8.19 -7.584,8.19c-4.28,-0 -7.448,-3.168 -7.448,-8.123c-0,-4.921 3.303,-8.19 7.617,-8.19c4.314,0 7.415,3.168 7.415,8.123Zm-2.056,0.067c-0,-3.775 -2.191,-6.302 -5.46,-6.302c-3.27,-0 -5.427,2.595 -5.427,6.235c0,3.775 2.191,6.302 5.46,6.302c3.27,0 5.427,-2.595 5.427,-6.235Zm19.952,-0.067c0,4.921 -3.302,8.19 -7.583,8.19c-4.28,-0 -7.448,-3.168 -7.448,-8.123c-0,-4.921 3.303,-8.19 7.617,-8.19c4.314,0 7.414,3.168 7.414,8.123Zm-2.055,0.067c-0,-3.775 -2.191,-6.302 -5.46,-6.302c-3.27,-0 -5.427,2.595 -5.427,6.235c0,3.775 2.191,6.302 5.46,6.302c3.269,0 5.427,-2.595 5.427,-6.235Zm8.021,7.685l-2.09,-0l0,-22.717l2.09,-0.438l0,23.155Zm14.122,-4.213c0,2.831 -2.427,4.651 -5.527,4.651c-1.82,-0 -3.742,-0.539 -5.056,-1.382l0.573,-1.921c1.314,0.876 2.966,1.415 4.55,1.415c1.854,0 3.472,-0.91 3.472,-2.595c-0,-1.853 -1.955,-2.393 -3.876,-2.999c-2.124,-0.641 -4.483,-1.686 -4.483,-4.382c-0,-2.797 2.326,-4.449 5.224,-4.449c1.685,0 3.37,0.472 4.685,1.146l-0.607,1.887c-1.281,-0.707 -2.865,-1.145 -4.213,-1.145c-1.887,-0 -3.101,0.876 -3.101,2.359c0,1.752 1.82,2.292 3.809,2.898c2.191,0.641 4.55,1.652 4.55,4.517Z" style="fill:#d8d8d8;"/></svg>