<?xml version="1.0" encoding="UTF-8" standalone="no"?>
<!DOCTYPE svg PUBLIC "-//W3C//DTD SVG 1.1//EN" "http://www.w3.org/Graphics/SVG/1.1/DTD/svg11.dtd">
<svg width="100%" height="100%" viewBox="0 0 247 400" version="1.1" xmlns="http://www.w3.org/2000/svg" xmlns:xlink="http://www.w3.org/1999/xlink" xml:space="preserve" xmlns:serif="http://www.serif.com/" style="fill-rule:evenodd;clip-rule:evenodd;stroke-linejoin:round;stroke-miterlimit:2;">
    <g id="GitHub" transform="matrix(0.611279,0,0,0.611279,-4.5765,100.404)">
        <path d="M146.433,280.529L137.258,280.529C136.353,280.529 135.618,279.797 135.614,278.892L135.569,268.129C135.565,267.138 136.249,266.277 137.215,266.058L146.387,263.974L146.272,245.849C146.27,245.531 146.396,245.224 146.62,244.998C146.845,244.772 147.15,244.645 147.469,244.645L165.646,244.645C165.926,244.645 166.195,244.757 166.394,244.955C166.592,245.154 166.703,245.423 166.702,245.703L166.67,263.251L179.804,263.251C180.686,263.251 181.401,263.966 181.401,264.848L181.401,278.94C181.401,279.797 180.707,280.491 179.85,280.491L166.67,280.491L166.631,307.232C167.155,312.841 172.047,314.486 179.948,313.4L180.158,313.39C180.549,313.371 180.931,313.513 181.214,313.783C181.498,314.053 181.658,314.427 181.659,314.818L181.674,327.537C181.675,328.095 181.331,328.618 180.797,328.78C179.909,329.049 178.605,329.395 177.414,329.619C175.461,329.987 172.039,330.428 169.402,330.48C167.091,330.526 157.938,329.875 152.853,325.506C147.598,320.991 146.446,312.717 146.471,310.342L146.433,280.529ZM110.419,328.788C109.306,328.788 108.403,327.885 108.403,326.772L108.403,264.967C108.403,264.494 108.591,264.04 108.926,263.706C109.26,263.371 109.714,263.183 110.188,263.183L127.355,263.183C127.829,263.183 128.283,263.371 128.617,263.706C128.952,264.04 129.14,264.494 129.14,264.967L129.14,326.772C129.14,327.885 128.237,328.788 127.124,328.788L110.419,328.788ZM119.093,258.127C115.93,258.127 113.229,256.988 110.989,254.709C108.75,252.431 107.63,249.69 107.63,246.488C107.63,243.286 108.75,240.545 110.989,238.267C113.229,235.988 115.916,234.849 119.051,234.849C122.214,234.849 124.908,235.988 127.133,238.267C129.358,240.545 130.471,243.286 130.471,246.488C130.471,249.69 129.358,252.431 127.133,254.709C124.908,256.988 122.228,258.127 119.093,258.127ZM191.77,328.797C190.898,328.794 190.192,328.086 190.193,327.213L190.275,234.142C190.275,233.546 190.758,233.063 191.354,233.061L209.729,232.998C210.017,232.997 210.294,233.111 210.498,233.315C210.702,233.519 210.816,233.796 210.815,234.085L210.68,268.767L238.358,268.767L238.127,234.724C238.124,234.285 238.296,233.862 238.606,233.551C238.915,233.239 239.336,233.064 239.775,233.064L257.06,233.064C257.968,233.064 258.705,233.799 258.708,234.708L258.975,327.11C258.976,327.523 258.812,327.92 258.52,328.213C258.228,328.506 257.831,328.671 257.418,328.671L239.948,328.671C239.536,328.671 239.14,328.507 238.848,328.215C238.556,327.923 238.392,327.527 238.392,327.114L238.393,287.673L210.715,287.673L210.813,327.264C210.814,327.685 210.647,328.089 210.349,328.387C210.051,328.685 209.647,328.851 209.225,328.85L191.77,328.797ZM307.257,310.389L307.194,264.828C307.194,264.459 307.34,264.104 307.602,263.843C307.863,263.581 308.217,263.434 308.587,263.434L326.334,263.434C327.101,263.434 327.724,264.055 327.727,264.822C327.759,274.263 327.859,328.699 327.859,328.699L313.59,328.884L313.03,324.23C313.03,324.23 304.248,330.585 291.305,330.585C287.331,330.585 279.867,329.85 276.893,327.702C273.918,325.555 271.54,323.852 269.899,320.079C268.257,316.306 267.794,311.906 267.769,307.03L267.599,265.215C267.595,264.212 268.404,263.395 269.407,263.39L286.736,263.295C287.221,263.292 287.687,263.484 288.031,263.826C288.374,264.169 288.566,264.635 288.564,265.12L288.399,304.445C288.424,307.754 289.146,310.351 290.565,312.238C291.985,314.124 301.445,314.865 307.257,310.389ZM338.874,328.741C337.534,328.9 336.602,327.917 336.736,326.602C336.736,313.621 336.924,246.084 336.924,234.492C336.924,234.046 337.101,233.619 337.416,233.304C337.731,232.989 338.158,232.812 338.604,232.812L355.684,232.812C356.612,232.812 357.364,233.564 357.364,234.492L357.364,266.107L357.66,266.107C360.06,263.107 370.842,261.261 373.656,261.261C377.408,261.261 382.644,261.952 385.768,263.693C389.375,265.703 393.575,269.282 395.71,274.332C397.846,279.382 399.029,287.765 399.029,295.833C399.029,303.553 397.423,312.521 395.386,317.6C393.35,322.679 389.746,326.069 386.239,327.961C382.531,329.962 377.465,330.55 373.417,330.55C370.751,330.55 358.868,329.632 353.143,323.826L352.699,323.826C352.699,323.826 352.596,324.998 352.507,326.451C352.423,327.81 351.297,328.869 349.937,328.869C347.138,328.869 342.296,328.741 338.874,328.741ZM356.988,281.291L357.032,310.554C357.032,310.554 360.037,313.593 368.543,313.737C371.37,313.785 373.465,312.979 375,311.761C377.263,309.965 377.734,307.19 378.177,304.424C378.905,299.88 378.561,295.372 378.573,295.372C378.573,295.372 379.78,278.262 368.624,278.262C360.504,278.262 356.988,281.291 356.988,281.291ZM92.856,243.071L91.126,250.377C91.003,250.893 90.644,251.322 90.156,251.533C89.669,251.743 89.111,251.712 88.65,251.447C86.018,250.299 80.584,248.632 71.525,248.632C57.827,248.632 52.484,254.612 50.42,258.589C48.357,262.567 45.885,267.478 45.885,280.588C45.885,293.698 49.064,304.033 56.737,308.596C64.41,313.16 77.979,310.173 77.979,310.173L77.975,290.899L65.63,291.051C65.204,291.057 64.794,290.891 64.492,290.592C64.189,290.292 64.019,289.884 64.02,289.458L64.044,274.243C64.046,273.365 64.757,272.655 65.634,272.655L96.925,272.64C97.347,272.64 97.752,272.807 98.051,273.106C98.349,273.405 98.516,273.81 98.516,274.233L98.444,322.753C98.444,322.753 88.577,330.585 70.494,330.585C52.411,330.585 43.67,327.027 34.897,317.177C26.125,307.327 24.923,290.384 24.923,279.845C24.923,269.307 26.491,246.367 43.289,235.148C53.767,228.149 67.89,229.609 68.942,229.321C68.942,229.321 83.511,229.374 90.95,232.61C91.859,233.006 92.778,233.423 93.498,233.754C94.297,234.122 94.721,235.007 94.506,235.861L94.302,236.669L92.856,243.071ZM152.304,206.411C119.732,186.33 98.002,150.327 98.002,109.288C98.002,46.363 149.089,-4.723 212.014,-4.723C274.939,-4.723 326.026,46.363 326.026,109.288C326.026,158.774 294.43,200.939 250.328,216.692C249.597,216.84 249.015,216.947 248.664,216.997C243.554,217.729 240.575,215.801 240.552,211.883C240.482,199.582 240.534,193.328 240.658,182.464C240.74,175.203 240.917,166.976 232.891,159.11C249.176,157.579 262.869,151.934 271,143.964C280.433,134.719 283.075,122.393 284.584,110.472C286.486,95.437 281.708,80.477 273.253,72.32C276.42,63.006 276.327,52.498 272.216,41.666C255.655,42.189 249.405,48.601 240.818,53.677C221.559,48.278 202.558,48.58 183.777,53.74C173.939,47.737 164.261,41.132 152.601,41.978C147.439,54.893 148.694,65.637 151.35,72.245C140.449,83.129 138.335,99.046 140.303,114.055C141.586,123.832 144.321,133.086 150.9,140.847C159.638,151.153 173.594,157.592 191.488,159.158C187.438,162.718 185.14,167.888 184.26,174.36C173.309,179.503 162.915,176.805 158.148,173.179C153.947,169.984 151.3,165.004 147.734,160.515C143.852,155.628 138.129,153.34 135.167,153.34C132.552,153.34 130.441,153.392 128.948,154.229C128.129,154.822 128.185,155.685 128.799,156.73C129.929,158.654 133.465,160.344 136.395,162.962C138.668,164.993 140.521,167.832 141.608,169.788C145.647,177.064 147.218,182.943 153.002,186.956C159.696,191.601 171.219,192.773 183.732,190.224L183.947,210.874C183.969,213.005 182.916,215.004 181.145,216.191C179.374,217.377 177.124,217.591 175.161,216.76L163.21,211.698L152.304,206.411Z" style="fill:rgb(216,216,216);"/>
    </g>
</svg>
