<?xml version="1.0" encoding="UTF-8" standalone="no"?>
<!DOCTYPE svg PUBLIC "-//W3C//DTD SVG 1.1//EN" "http://www.w3.org/Graphics/SVG/1.1/DTD/svg11.dtd">
<svg width="100%" height="100%" viewBox="0 0 193 400" version="1.1" xmlns="http://www.w3.org/2000/svg" xmlns:xlink="http://www.w3.org/1999/xlink" xml:space="preserve" xmlns:serif="http://www.serif.com/" style="fill-rule:evenodd;clip-rule:evenodd;stroke-linejoin:round;stroke-miterlimit:2;">
    <g transform="matrix(0.652102,0,0,0.652102,2.29956,-74.526)">
        <path d="M25.589,239.451L38.306,239.451L38.306,261.645L61.715,261.645L61.715,239.451L74.432,239.451L74.432,297.285L61.715,297.285L61.715,272.337L38.306,272.337L38.306,297.285L25.589,297.285L25.589,239.451ZM103.025,250.143L85.691,250.143L85.691,239.451L133.076,239.451L133.076,250.143L115.742,250.143L115.742,297.285L103.025,297.285L103.025,250.143ZM144.335,239.451L162.236,239.451L175.763,279.222L175.925,279.222L188.723,239.451L206.624,239.451L206.624,297.285L194.717,297.285L194.717,256.299L194.555,256.299L180.38,297.285L170.579,297.285L156.404,256.704L156.242,256.704L156.242,297.285L144.335,297.285L144.335,239.451ZM222.419,239.451L235.136,239.451L235.136,286.593L263.324,286.593L263.324,297.285L222.419,297.285L222.419,239.451ZM263.324,331.116L259.58,379.786L78.003,379.786L81.747,428.457L255.836,428.457L242.733,574.467L145.392,602.546L46.18,574.467L44.308,501.462L91.107,501.462L91.107,538.9L145.392,553.876L199.678,537.028L203.422,475.255L38.693,475.255L25.589,331.116L263.324,331.116Z" style="fill:rgb(216,216,216);"/>
    </g>
</svg>
