<?xml version="1.0" encoding="UTF-8" standalone="no"?><!DOCTYPE svg PUBLIC "-//W3C//DTD SVG 1.1//EN" "http://www.w3.org/Graphics/SVG/1.1/DTD/svg11.dtd"><svg width="100%" height="100%" viewBox="0 0 400 400" version="1.1" xmlns="http://www.w3.org/2000/svg" xmlns:xlink="http://www.w3.org/1999/xlink" xml:space="preserve" xmlns:serif="http://www.serif.com/" style="fill-rule:evenodd;clip-rule:evenodd;stroke-linejoin:round;stroke-miterlimit:2;"><path d="M122.486,81.612l8.293,0l-0,14.473l15.265,0l0,-14.473l8.293,0l-0,37.714l-8.293,0l0,-16.269l-15.265,0l-0,16.269l-8.293,0l0,-37.714Zm50.496,6.973l-11.303,-0l-0,-6.973l30.9,0l-0,6.973l-11.304,-0l0,30.741l-8.293,0l0,-30.741Zm26.939,-6.973l11.673,0l8.821,25.935l0.106,0l8.345,-25.935l11.674,0l-0,37.714l-7.765,0l-0,-26.727l-0.106,-0l-9.243,26.727l-6.391,0l-9.244,-26.463l-0.106,0l0,26.463l-7.764,0l-0,-37.714Zm50.919,0l8.292,0l0,30.742l18.382,-0l-0,6.972l-26.674,0l-0,-37.714Zm26.674,59.776l-2.442,31.738l-118.406,-0l2.441,31.737l113.524,0l-8.545,95.214l-63.476,18.311l-64.696,-18.311l-1.221,-47.607l30.517,0l0,24.414l35.4,9.766l35.4,-10.987l2.442,-40.282l-107.421,-0l-8.545,-93.993l155.028,-0Z" style="fill:#d8d8d8;"/></svg>