<?xml version="1.0" encoding="UTF-8" standalone="no"?>
<!DOCTYPE svg PUBLIC "-//W3C//DTD SVG 1.1//EN" "http://www.w3.org/Graphics/SVG/1.1/DTD/svg11.dtd">
<svg width="100%" height="100%" viewBox="0 0 193 400" version="1.1" xmlns="http://www.w3.org/2000/svg" xmlns:xlink="http://www.w3.org/1999/xlink" xml:space="preserve" xmlns:serif="http://www.serif.com/" style="fill-rule:evenodd;clip-rule:evenodd;stroke-linejoin:round;stroke-miterlimit:2;">
    <g transform="matrix(0.653394,0,0,0.653394,-64.0077,71.8632)">
        <path d="M135.791,252.894C138.572,256.572 142.16,259.577 146.556,261.909C150.952,264.69 156.11,266.081 162.03,266.081C169.925,266.26 177.46,263.524 184.637,257.873C188.135,255.092 190.871,251.414 192.845,246.839C194.908,242.443 195.94,236.926 195.94,230.288L195.94,98.015L225.677,98.015L225.677,233.248C225.319,252.984 218.86,268.234 206.301,278.999C193.831,290.032 179.344,295.639 162.838,295.819C140.052,295.28 123.053,286.758 111.839,270.252L135.791,252.894ZM255.131,246.57C270.74,259.398 289.309,265.901 310.839,266.081C336.316,265.722 349.233,256.617 349.592,238.765C349.772,224.143 341.25,215.352 324.026,212.391C316.132,211.315 307.475,210.104 298.056,208.758C281.191,205.977 268.363,199.743 259.571,190.054C250.511,180.097 245.981,167.986 245.981,153.723C245.981,136.589 251.677,122.774 263.07,112.278C274.104,101.872 289.758,96.58 310.032,96.4C334.432,96.939 355.647,103.711 373.679,116.719L357.128,141.209C342.416,131.521 326.224,126.497 308.551,126.138C299.401,126.138 291.776,128.426 285.676,133.001C279.307,137.755 276.033,144.842 275.853,154.261C275.853,159.913 278.051,165.026 282.447,169.601C286.842,174.266 293.884,177.495 303.573,179.289C308.955,180.186 316.311,181.218 325.641,182.384C344.03,184.896 357.621,191.49 366.412,202.165C375.114,212.66 379.465,224.86 379.465,238.765C378.478,276.262 355.513,295.28 310.57,295.819C281.505,295.819 256.521,286.848 235.62,268.906L255.131,246.57Z" style="fill:rgb(216,216,216);"/>
    </g>
</svg>
