<?xml version="1.0" encoding="UTF-8" standalone="no"?><!DOCTYPE svg PUBLIC "-//W3C//DTD SVG 1.1//EN" "http://www.w3.org/Graphics/SVG/1.1/DTD/svg11.dtd"><svg width="100%" height="100%" viewBox="0 0 400 400" version="1.1" xmlns="http://www.w3.org/2000/svg" xmlns:xlink="http://www.w3.org/1999/xlink" xml:space="preserve" xmlns:serif="http://www.serif.com/" style="fill-rule:evenodd;clip-rule:evenodd;stroke-linejoin:round;stroke-miterlimit:2;"><path d="M102.441,246.948c2.417,3.196 5.535,5.807 9.355,7.834c3.82,2.417 8.302,3.625 13.447,3.625c6.86,0.156 13.409,-2.222 19.645,-7.133c3.041,-2.416 5.418,-5.613 7.133,-9.588c1.793,-3.82 2.69,-8.615 2.69,-14.383l-0,-114.947l25.842,0l0,117.519c-0.312,17.151 -5.924,30.403 -16.838,39.758c-10.836,9.588 -23.426,14.461 -37.77,14.617c-19.801,-0.468 -34.574,-7.874 -44.318,-22.218l20.814,-15.084Zm103.708,-5.496c13.564,11.147 29.701,16.799 48.411,16.955c22.139,-0.312 33.365,-8.224 33.677,-23.738c0.156,-12.706 -7.25,-20.346 -22.218,-22.919c-6.86,-0.935 -14.383,-1.988 -22.568,-3.157c-14.656,-2.416 -25.804,-7.834 -33.443,-16.254c-7.874,-8.653 -11.811,-19.177 -11.811,-31.572c0,-14.89 4.95,-26.895 14.851,-36.016c9.588,-9.043 23.192,-13.642 40.81,-13.798c21.204,0.468 39.641,6.353 55.31,17.657l-14.383,21.282c-12.785,-8.419 -26.856,-12.785 -42.213,-13.096c-7.952,-0 -14.578,1.987 -19.879,5.963c-5.535,4.132 -8.38,10.29 -8.536,18.476c-0,4.911 1.91,9.355 5.729,13.33c3.82,4.054 9.94,6.86 18.359,8.42c4.677,0.779 11.07,1.676 19.177,2.689c15.981,2.183 27.792,7.913 35.431,17.189c7.562,9.121 11.343,19.723 11.343,31.806c-0.858,32.586 -20.814,49.113 -59.87,49.581c-25.258,-0 -46.969,-7.796 -65.133,-23.387l16.956,-19.411Z" style="fill:#d8d8d8;"/></svg>