<?xml version="1.0" encoding="UTF-8" standalone="no"?><!DOCTYPE svg PUBLIC "-//W3C//DTD SVG 1.1//EN" "http://www.w3.org/Graphics/SVG/1.1/DTD/svg11.dtd"><svg width="100%" height="100%" viewBox="0 0 400 400" version="1.1" xmlns="http://www.w3.org/2000/svg" xmlns:xlink="http://www.w3.org/1999/xlink" xml:space="preserve" xmlns:serif="http://www.serif.com/" style="fill-rule:evenodd;clip-rule:evenodd;stroke-linejoin:round;stroke-miterlimit:2;"><path d="M312.051,214.677c-9.015,-6.562 -18.423,-12.765 -22.021,-24.258c-2.451,5.745 -2.471,14.089 -10.816,13.531c-11.479,-11.181 -12.713,-26.205 -6.782,-46.717c-5.539,-9.422 -9.91,-21.358 -15.121,-30.197c-5.959,-10.106 -9.311,-15.886 -7.737,-22.787c11.008,-2.206 20.962,0.754 30.157,7.437l19.456,4.805c21.977,10.514 38.767,34.905 51.887,69.118l35.35,25.699l-19.46,6.894l24.946,23.671c-10.521,-6.003 -18.43,-7.058 -35.707,-25.859c-1.644,-4.409 10.521,-5.816 22.085,-7.353c0,0 -7.711,-5.355 -16.263,-9.814c-5.581,-2.909 -12.282,-3.942 -14.799,-8.012c-11.177,-18.068 -26.254,-56.422 -50.966,-67.945l-9.621,-4.63l-10.094,-1.076l-15.97,-8.615l-5.993,-0.113l0.371,5.392l23.604,42.812c-4.306,13.314 -6.187,35.816 3.266,41.718c-0.401,-8.881 2.696,-20.275 6.692,-23.352c6.515,15.737 14.585,28.528 23.536,39.651Zm-25.097,67.111c-0.485,-0.018 -0.978,-0.03 -1.481,-0.03c-8.234,-0 -18.872,-0.457 -26.825,-0.457c-9.421,-0 -16.718,-3.872 -16.718,-13.292l-0,-27.261c-0,-9.514 7.713,-17.227 17.228,-17.227l30.316,-0c8.105,-0 14.676,6.57 14.676,14.675l-0,27.4c-0,5.164 -2.051,10.116 -5.703,13.767c-0.138,0.139 -0.277,0.27 -0.417,0.394l7.701,7.27l2.783,1.842l-12.521,0.575l-9.039,-7.656Zm3.788,-8.489c1.483,-1.348 2.414,-3.291 2.414,-5.453l-0,-30.286c-0,-2.841 -2.304,-5.145 -5.146,-5.145l-25.387,0c-2.133,0 -4.179,0.848 -5.688,2.356c-1.509,1.509 -2.356,3.555 -2.356,5.689l-0,23.103c-0,6.434 5.216,11.65 11.65,11.65l12.962,0l-11.422,-9.675l10.315,-1.51l12.658,9.271Zm-280.406,8.424l0.079,-48.729l1.712,-5.604l4.297,-3.292l8.336,-1.954l6.039,1.261l3.136,2.105l3.734,7.316l11.058,25.262l4.831,10.142l1.352,-0.01l2.993,-6.434l16.388,-34.439l4.618,-3.7l6.911,-1.265l7.447,0.988c-0,-0 2.66,1.179 4.259,3.609c1.599,2.431 2.037,9.378 2.037,9.378l0.079,45.431l-14.477,0.058l-0.163,-45.681l-0.436,-0.609l-1.379,2.466l-7.204,16.46l-5.493,12.63l-7.513,12.749l-5.314,1.945l-9.051,0.061l-3.534,-1.874l-5.444,-10.816l-5.729,-12.951l-7.292,-17.996l-1.738,-0.216l-0.028,43.742l-14.511,-0.033Zm98.355,-40.811l13.296,0.018l0.025,29.09c0.19,1.926 0.841,3.174 2.472,2.985l30.146,0.053l-0.284,-31.554l2.049,-1.532l10.702,-0.015l1.904,1.915l0.011,40.433c0,-0 0.459,7.745 -3.828,12.306c-4.103,4.365 -12.747,5.555 -21.833,5.555c-18.58,-0 -34.642,-0.046 -34.642,-0.046l-0.013,-9.187l40.422,0.069c0,-0 7.474,-1.649 5.976,-9.13c-8.593,-0 -25.188,0.066 -31.433,-0.137c-1.929,-0.062 -14.836,-3.865 -14.836,-10.066c0,-18.954 -0.134,-30.757 -0.134,-30.757Zm125.726,20.211l0.002,7.538c0.001,7.066 -5.63,12.845 -12.694,13.027l-43.308,1.115l0,-9.253l36.184,0c1.701,0 3.333,-0.676 4.537,-1.879c1.203,-1.203 1.879,-2.835 1.879,-4.537l-0,-5.892c-0,-2.498 -1.949,-4.561 -4.443,-4.704l-25.527,-1.462c-6.607,-1.091 -11.437,-3.998 -12.566,-10.144l-0.004,-0.023c-0.65,-3.462 -0.225,-7.639 0.016,-10.963c0.03,-0.426 0.138,-0.844 0.318,-1.231l1.379,-2.961c1.192,-2.557 3.479,-4.436 6.219,-5.108c2.163,-0.564 4.616,-1.16 6.348,-1.183c9.83,-0.127 41.809,-0.137 41.809,-0.137l0.036,7.566l-30.462,0.145c-4.979,0.063 -9.156,0.46 -11.299,1.705c-1.963,3.943 -4.126,7.128 -0.349,14.225c0,-0 20.917,1.341 27.567,2.078c1.544,0.171 3.642,0.538 5.669,0.931c3.985,0.692 7.143,3.747 7.965,7.707c0.399,1.874 0.724,3.44 0.724,3.44Zm78.754,-37.462l11.948,-0.156c0,0 0.088,35.705 0.088,42.338c0,6.633 4.665,6.816 4.665,6.816l7.277,0.743l30.767,-0.507l-0.036,8.843l-39.631,-0.149c0,-0 -7.159,-1.547 -11.558,-5.499c-4.399,-3.953 -3.522,-7.099 -3.522,-7.099l0.002,-45.33Z" style="fill:#d8d8d8;"/></svg>