<?xml version="1.0" encoding="UTF-8" standalone="no"?><!DOCTYPE svg PUBLIC "-//W3C//DTD SVG 1.1//EN" "http://www.w3.org/Graphics/SVG/1.1/DTD/svg11.dtd"><svg width="100%" height="100%" viewBox="0 0 400 400" version="1.1" xmlns="http://www.w3.org/2000/svg" xmlns:xlink="http://www.w3.org/1999/xlink" xml:space="preserve" xmlns:serif="http://www.serif.com/" style="fill-rule:evenodd;clip-rule:evenodd;stroke-linejoin:round;stroke-miterlimit:2;"><path id="AffinityPhoto" d="M122.977,154.319l0,91.362c0,6.241 -5.067,11.308 -11.308,11.308l-91.126,0c-6.242,0 -11.309,-5.067 -11.309,-11.308l0,-91.362c0,-6.241 5.067,-11.308 11.309,-11.308l91.126,-0c6.241,-0 11.308,5.067 11.308,11.308Zm-67.39,4.598l-14.534,25.187l29.076,0l-14.542,-25.187Zm51.769,-7.484l-47.45,-0l-1.758,3.047l23.724,41.091l25.484,-44.138Zm7.216,60.047l0,-56.138c0,-1.794 -1.211,-3.307 -2.859,-3.766l-34.586,59.904l37.445,-0Zm-33.533,37.087l29.624,0c2.158,0 3.909,-1.752 3.909,-3.909l0,-29.313l-52.713,0l19.18,33.222Zm-56.445,0l51.875,0l-25.938,-44.924l-25.937,44.924Zm14.214,-60.574l-21.169,36.685l-0,19.98c-0,1.731 1.128,3.201 2.689,3.715l34.86,-60.38l-16.38,0Zm34.728,2.012c-0.719,-1.245 -2.047,-2.012 -3.485,-2.012l-8.161,0c-1.438,0 -2.766,0.767 -3.485,2.012l-4.427,7.667c-0.718,1.245 -0.718,2.779 0,4.024l4.487,7.772c0.719,1.245 2.047,2.012 3.485,2.012l8.414,-0c1.438,-0 2.767,-0.767 3.485,-2.012l4.3,-7.448c0.719,-1.245 0.719,-2.779 0,-4.024l-4.613,-7.991Zm98.903,-32.551l0,12.194l-2.616,0l0,-26.637l14.337,-0l0,2.098l-11.721,0l0,10.247l6.682,-0l-0,2.098l-6.682,0Zm19.605,0l-0,12.194l-2.616,0l-0,-26.637l14.336,-0l0,2.098l-11.72,0l-0,10.247l6.681,-0l0,2.098l-6.681,0Zm19.129,-14.437l-0,26.631l-2.451,0l0,-26.631l2.451,-0Zm34.862,-0l-0,26.631l-2.45,0l-0,-26.631l2.45,-0Zm12.135,2.214l-7.051,0l-0,-2.214l16.552,-0l-0,2.214l-7.051,0l-0,24.417l-2.45,0l-0,-24.417Zm-39.374,1.625l-0,22.792l-2.45,0l-0,-26.631l2.45,-0l-0,0.123l0.162,-0.123l17.093,22.525l-0,-22.525l2.45,-0l-0,26.631l-2.45,0l-0,-0.053l-17.255,-22.739Zm-72.61,19.117l-1.598,3.675l-2.853,0l11.582,-26.631l2.428,-0l12.201,26.631l-2.898,0l-10.497,-22.911l-7.458,17.151l12.27,0.007l1.829,2.086l-15.006,-0.008Zm135.046,-3.578l-11.663,-19.384l3.016,-0l10.137,16.848l9.566,-16.848l2.971,-0l-11.34,19.973l-0,6.664l-2.687,0l0,-7.253Zm-139.497,20.887l32.308,-0c6.387,-0 11.535,1.8 15.446,5.401c3.91,3.601 5.865,8.659 5.865,15.176c-0,5.605 -1.743,10.485 -5.23,14.639c-3.487,4.155 -8.847,6.232 -16.081,6.232l-22.581,0l-0,30.353l-9.727,-0l0,-71.801Zm43.794,20.626c0,-5.279 -1.955,-8.863 -5.865,-10.753c-2.15,-1.01 -5.099,-1.515 -8.847,-1.515l-19.355,0l-0,24.879l19.355,-0c4.367,-0 7.91,-0.929 10.631,-2.786c2.721,-1.858 4.081,-5.133 4.081,-9.825Zm20.871,-20.87l8.798,-0l0,26.784c2.085,-2.639 3.959,-4.496 5.621,-5.572c2.835,-1.857 6.37,-2.786 10.606,-2.786c7.593,0 12.741,2.656 15.446,7.967c1.466,2.9 2.199,6.925 2.199,12.073l0,33.579l-9.042,-0l-0,-32.992c-0,-3.845 -0.489,-6.664 -1.467,-8.456c-1.596,-2.868 -4.594,-4.301 -8.993,-4.301c-3.65,-0 -6.957,1.254 -9.922,3.763c-2.965,2.509 -4.448,7.25 -4.448,14.224l0,27.762l-8.798,-0l0,-72.045Zm76.786,18.182c6.746,0 12.448,2.248 17.108,6.745c4.659,4.497 6.989,11.112 6.989,19.844c0,8.44 -2.053,15.413 -6.159,20.92c-4.105,5.507 -10.476,8.26 -19.111,8.26c-7.201,0 -12.919,-2.436 -17.156,-7.307c-4.236,-4.872 -6.354,-11.413 -6.354,-19.624c0,-8.798 2.232,-15.804 6.697,-21.018c4.464,-5.213 10.459,-7.82 17.986,-7.82Zm-0.342,48.193c5.833,0 9.833,-2.208 12,-6.623c2.167,-4.415 3.25,-9.327 3.25,-14.736c0,-4.888 -0.782,-8.863 -2.346,-11.926c-2.476,-4.823 -6.745,-7.234 -12.806,-7.234c-5.376,-0 -9.287,2.053 -11.73,6.158c-2.444,4.106 -3.666,9.059 -3.666,14.859c-0,5.572 1.222,10.215 3.666,13.93c2.443,3.715 6.321,5.572 11.632,5.572Zm36.658,-61.292l8.896,-0l0,14.614l8.358,0l0,7.185l-8.358,0l0,34.165c0,1.825 0.619,3.047 1.857,3.666c0.685,0.359 1.825,0.538 3.422,0.538c0.423,-0 0.88,-0.008 1.368,-0.025c0.489,-0.016 1.059,-0.057 1.711,-0.122l0,6.941c-1.01,0.293 -2.061,0.505 -3.152,0.635c-1.092,0.131 -2.273,0.196 -3.544,0.196c-4.106,-0 -6.892,-1.051 -8.358,-3.153c-1.466,-2.102 -2.2,-4.831 -2.2,-8.187l0,-34.654l-7.087,0l0,-7.185l7.087,0l0,-14.614Zm47.167,13.099c6.745,0 12.448,2.248 17.107,6.745c4.66,4.497 6.99,11.112 6.99,19.844c-0,8.44 -2.053,15.413 -6.159,20.92c-4.106,5.507 -10.476,8.26 -19.111,8.26c-7.201,0 -12.92,-2.436 -17.156,-7.307c-4.236,-4.872 -6.354,-11.413 -6.354,-19.624c-0,-8.798 2.232,-15.804 6.696,-21.018c4.464,-5.213 10.46,-7.82 17.987,-7.82Zm-0.342,48.193c5.833,0 9.832,-2.208 11.999,-6.623c2.167,-4.415 3.251,-9.327 3.251,-14.736c-0,-4.888 -0.782,-8.863 -2.346,-11.926c-2.477,-4.823 -6.746,-7.234 -12.806,-7.234c-5.377,-0 -9.287,2.053 -11.731,6.158c-2.444,4.106 -3.666,9.059 -3.666,14.859c0,5.572 1.222,10.215 3.666,13.93c2.444,3.715 6.322,5.572 11.633,5.572Z" style="fill:#d8d8d8;"/></svg>