<?xml version="1.0" encoding="UTF-8" standalone="no"?><!DOCTYPE svg PUBLIC "-//W3C//DTD SVG 1.1//EN" "http://www.w3.org/Graphics/SVG/1.1/DTD/svg11.dtd"><svg width="100%" height="100%" viewBox="0 0 400 400" version="1.1" xmlns="http://www.w3.org/2000/svg" xmlns:xlink="http://www.w3.org/1999/xlink" xml:space="preserve" xmlns:serif="http://www.serif.com/" style="fill-rule:evenodd;clip-rule:evenodd;stroke-linejoin:round;stroke-miterlimit:2;"><path d="M267.93,146.366l51.619,0c10.845,0 18.758,0.551 23.729,1.773c4.691,1.154 10.798,5.277 18.572,11.981c3.502,3.02 5.678,7.678 6.876,13.799c1.397,7.14 1.394,16.089 0.103,26.847c-1.895,15.793 -7.983,28.488 -18.424,38.007c-10.426,9.506 -24.009,14.133 -40.663,14.133l-28.616,0c-2.926,0 -5.391,2.187 -5.739,5.092l-4.715,39.287l-20.852,-0l18.11,-150.919Zm24.341,13.66c-2.926,0 -5.39,2.187 -5.739,5.092l-8.119,67.659c-0.197,1.641 0.318,3.289 1.415,4.525c1.097,1.237 2.671,1.944 4.324,1.944l19.886,0c12.841,0 22.793,-3.467 29.995,-9.981c7.164,-6.479 11.729,-16.104 13.284,-29.061c1.582,-13.184 -0.675,-22.992 -5.954,-29.584c-5.442,-6.795 -14.266,-10.594 -26.781,-10.594l-22.311,0Zm-106.113,-57.311l-4.462,37.182c-0.197,1.641 0.318,3.289 1.415,4.525c1.097,1.237 2.671,1.944 4.324,1.944l33.223,0c15.39,0 26.149,2.456 31.986,8.441c5.684,5.829 7.1,15.73 5.451,29.469l-8.236,68.63l-20.852,0l7.285,-60.705c1.525,-12.707 -0.049,-20.978 -3.185,-24.985c-3.289,-4.203 -10.616,-7.19 -22.508,-7.19l-26.19,0c-2.927,0 -5.391,2.187 -5.74,5.092l-10.534,87.788l-20.852,0l18.023,-150.191l20.852,0Zm-137.834,43.651l51.619,0c10.845,0 18.758,0.551 23.729,1.773c4.691,1.154 10.798,5.277 18.572,11.981c3.502,3.02 5.678,7.678 6.876,13.799c1.397,7.14 1.394,16.089 0.103,26.847c-1.895,15.793 -7.983,28.488 -18.424,38.007c-10.425,9.506 -24.009,14.133 -40.663,14.133l-28.616,0c-2.926,0 -5.391,2.187 -5.739,5.092l-4.715,39.287l-20.852,-0l18.11,-150.919Zm24.342,13.66c-2.927,0 -5.391,2.187 -5.74,5.092l-8.119,67.659c-0.197,1.641 0.318,3.289 1.415,4.525c1.097,1.237 2.671,1.944 4.324,1.944l19.886,0c12.841,0 22.793,-3.467 29.995,-9.981c7.164,-6.479 11.729,-16.104 13.284,-29.061c1.582,-13.184 -0.675,-22.992 -5.954,-29.584c-5.442,-6.795 -14.265,-10.594 -26.781,-10.594l-22.31,0Z" style="fill:#d8d8d8;"/></svg>