<?xml version="1.0" encoding="UTF-8" standalone="no"?><!DOCTYPE svg PUBLIC "-//W3C//DTD SVG 1.1//EN" "http://www.w3.org/Graphics/SVG/1.1/DTD/svg11.dtd"><svg width="100%" height="100%" viewBox="0 0 400 400" version="1.1" xmlns="http://www.w3.org/2000/svg" xmlns:xlink="http://www.w3.org/1999/xlink" xml:space="preserve" xmlns:serif="http://www.serif.com/" style="fill-rule:evenodd;clip-rule:evenodd;stroke-linejoin:round;stroke-miterlimit:2;"><path id="phpMyAdmin" d="M206.108,198.278l64.546,-8.035l47.215,-5.486c-0,0 -23.258,4.23 -28.291,8.74c-5.033,4.51 -14.84,15.797 -14.84,15.797c0,0 -6.771,2.643 -12.08,0.465c-5.31,-2.178 -28.24,-5.608 -38.035,-4.479c-9.794,1.129 -26.08,3.796 -30.082,6.767c-4.002,2.97 -7.711,5.313 -11.848,-1.168c-4.136,-6.481 -4.056,-9.181 -4.056,-9.181l25.895,-3.223l4.346,-88.919l1.29,-0.006l-4.06,88.728Zm46.167,-105.515l-6.057,95.864c-18.334,-0.529 -27.566,2.507 -37.781,1.278c17.26,-27.575 33.303,-57.657 43.914,-98.916l0.106,-2.473c0.547,-1.03 1.597,-0.36 1.597,-0.36l-1.505,38.246c13.06,17.935 21.296,37.181 33.755,58.234l-26.163,3.37c0.016,-8.081 1.478,-23.896 0.141,-34.532c-1.24,-9.867 -2.742,-19.444 -7.733,-27.053l-2.576,65.488l-1.959,0.243l4.261,-99.389Zm-45.22,19.975l-4.507,80.326c-9.36,-0.751 -16.291,2.692 -24.307,2.148l28.814,-82.474Zm48.746,-19.463l55.532,89.96c-8.777,-13.537 -36.605,-12.348 -44.683,-36.124c0.061,-15.035 0.88,-33.491 -10.849,-53.836Zm-43.643,7.473c0,0 1.057,-4.038 3.669,-4.038c2.612,-0 6.394,3.707 6.394,3.707c-0,0 3.888,-2.804 6.241,-3.099c2.353,-0.295 4.491,3.881 4.491,3.881c-0,0 -3.077,-1.896 -4.393,-2.102c-1.316,-0.207 -5.019,2.086 -5.019,2.086c0,0 0.155,1.04 -0.703,1.22c-1.907,0.402 -1.485,-1.318 -1.485,-1.318c-0,0 -6.214,-5.697 -9.195,-0.337Zm7.168,10.279c-0,-0 1.057,-4.039 3.668,-4.039c2.612,0 6.394,3.708 6.394,3.708c0,-0 3.889,-2.804 6.242,-3.099c2.353,-0.295 4.49,3.881 4.49,3.881c0,-0 -3.076,-1.896 -4.392,-2.103c-1.317,-0.206 -5.019,2.087 -5.019,2.087c-0,-0 0.155,1.039 -0.704,1.22c-1.906,0.401 -1.485,-1.318 -1.485,-1.318c0,-0 -6.214,-5.697 -9.194,-0.337Zm-30.913,117.019c-0.378,-0.123 -0.586,-0.531 -0.463,-0.909c0.124,-0.379 0.531,-0.587 0.91,-0.463c5.87,1.909 10.942,-1.004 15.888,-3.593c5.334,-2.792 10.529,-5.218 16.251,-2.077c0.349,0.191 0.477,0.63 0.285,0.979c-0.191,0.35 -0.63,0.477 -0.979,0.286c-5.251,-2.882 -9.993,-0.472 -14.888,2.091c-5.283,2.765 -10.733,5.726 -17.004,3.686Zm61.956,-5.024c-0.378,-0.123 -0.586,-0.531 -0.463,-0.909c0.124,-0.379 0.531,-0.587 0.91,-0.463c5.87,1.909 10.942,-1.004 15.888,-3.593c5.334,-2.793 10.529,-5.218 16.251,-2.078c0.349,0.192 0.477,0.631 0.285,0.98c-0.191,0.349 -0.63,0.477 -0.979,0.286c-5.251,-2.882 -9.993,-0.472 -14.888,2.09c-5.283,2.766 -10.733,5.726 -17.004,3.687Zm-23.547,-3.537c-0.379,-0.124 -0.586,-0.531 -0.463,-0.91c0.123,-0.379 0.531,-0.586 0.909,-0.463c5.871,1.909 10.942,-1.003 15.888,-3.593c5.335,-2.792 10.53,-5.218 16.252,-2.077c0.349,0.192 0.477,0.631 0.285,0.98c-0.192,0.349 -0.631,0.477 -0.98,0.285c-5.25,-2.882 -9.992,-0.471 -14.887,2.091c-5.283,2.766 -10.733,5.726 -17.004,3.687Zm-37.893,-1.923c-0.379,-0.123 -0.586,-0.531 -0.463,-0.91c0.123,-0.378 0.531,-0.586 0.91,-0.463c5.87,1.91 10.941,-1.003 15.888,-3.592c5.334,-2.793 10.529,-5.218 16.251,-2.078c0.349,0.192 0.477,0.631 0.285,0.98c-0.191,0.349 -0.63,0.477 -0.98,0.286c-5.25,-2.882 -9.992,-0.472 -14.887,2.09c-5.283,2.766 -10.733,5.726 -17.004,3.687Zm-17.428,7.848c-0.316,0.242 -0.77,0.182 -1.012,-0.135c-0.242,-0.316 -0.182,-0.769 0.134,-1.011c5.235,-4.01 11.36,-3.031 17.262,-2.18c5.468,0.787 10.742,1.483 14.735,-2.981c0.265,-0.297 0.722,-0.323 1.019,-0.057c0.297,0.265 0.322,0.722 0.057,1.019c-4.351,4.865 -10.057,4.306 -16.017,3.447c-5.526,-0.796 -11.277,-1.856 -16.178,1.898Zm-153.908,27.78l13.508,-0c4.068,-0 7.138,1.197 9.209,3.592c2.071,2.395 2.919,5.733 2.546,10.014c-0.153,1.755 -0.532,3.367 -1.136,4.835c-0.603,1.468 -1.442,2.809 -2.516,4.023c-1.275,1.46 -2.744,2.505 -4.407,3.137c-1.663,0.631 -3.823,0.947 -6.48,0.947l-6.028,0l-0.839,9.621l-7.013,-0l3.156,-36.169Zm6.512,5.733l-1.32,15.132l4.281,-0c2.838,-0 4.899,-0.599 6.185,-1.797c1.285,-1.197 2.05,-3.19 2.293,-5.979c0.235,-2.69 -0.141,-4.588 -1.127,-5.695c-0.986,-1.108 -2.816,-1.661 -5.489,-1.661l-4.823,-0Zm25.059,-15.354l6.963,0l-0.84,9.621l6.225,-0c3.904,-0 6.663,0.767 8.276,2.3c1.613,1.534 2.271,4.007 1.973,7.419l-1.468,16.829l-7.062,0l1.398,-16.017c0.159,-1.821 -0.066,-3.06 -0.673,-3.716c-0.607,-0.656 -1.804,-0.984 -3.592,-0.984l-5.585,0l-1.808,20.717l-6.963,0l3.156,-36.169Zm29.547,9.621l13.508,-0c4.068,-0 7.137,1.197 9.208,3.592c2.072,2.395 2.92,5.733 2.547,10.014c-0.153,1.755 -0.532,3.367 -1.136,4.835c-0.603,1.468 -1.442,2.809 -2.516,4.023c-1.276,1.46 -2.745,2.505 -4.407,3.137c-1.663,0.631 -3.823,0.947 -6.48,0.947l-6.028,0l-0.84,9.621l-7.012,-0l3.156,-36.169Zm6.512,5.733l-1.32,15.132l4.281,-0c2.838,-0 4.899,-0.599 6.185,-1.797c1.285,-1.197 2.05,-3.19 2.293,-5.979c0.235,-2.69 -0.141,-4.588 -1.127,-5.695c-0.986,-1.108 -2.816,-1.661 -5.489,-1.661l-4.823,-0Zm29.638,-22.569l13.452,0l6.713,33.423l15.51,-33.423l13.393,0l-5.733,43.557l-8.978,-0l5.206,-33.927l-15.636,33.927l-9.718,-0l-7.015,-34.282l-3.593,34.282l-9.333,-0l5.732,-43.557Zm66.13,36.505l6.786,-0l3.279,-24.919l8.445,-0l-4.095,31.112c-0.556,4.227 -1.956,7.358 -4.199,9.392c-2.243,2.035 -5.399,3.052 -9.468,3.052l-16.564,0l0.854,-6.489l15.112,0c1.62,0 2.915,-0.39 3.887,-1.17c0.972,-0.78 1.556,-1.911 1.751,-3.393l0.07,-0.533l-7.467,-0c-4.78,-0 -8.064,-0.943 -9.85,-2.83c-1.786,-1.886 -2.39,-5.032 -1.81,-9.437l2.593,-19.704l8.356,-0l-2.507,19.052c-0.318,2.41 -0.165,3.99 0.457,4.741c0.622,0.751 2.079,1.126 4.37,1.126Zm40.954,-36.505l9.718,0l12.846,43.557l-10.193,-0l-2.635,-10.371l-18.934,0l-5.246,10.371l-9.719,-0l24.163,-43.557Zm3.365,8.652l-8.578,16.771l12.978,0l-4.4,-16.771Zm50.992,34.905l-16.207,-0c-4.899,-0 -8.532,-1.442 -10.898,-4.326c-2.366,-2.884 -3.21,-6.904 -2.531,-12.06c0.278,-2.113 0.82,-4.054 1.625,-5.822c0.806,-1.768 1.887,-3.383 3.245,-4.845c1.614,-1.758 3.444,-3.017 5.49,-3.777c2.046,-0.761 4.659,-1.141 7.839,-1.141l7.23,-0l1.525,-11.586l8.415,0l-5.733,43.557Zm-7.514,-6.845l2.398,-18.222l-5.096,-0c-3.417,-0 -5.936,0.716 -7.557,2.148c-1.62,1.432 -2.65,3.817 -3.09,7.156c-0.426,3.239 -0.072,5.535 1.064,6.889c1.135,1.353 3.303,2.029 6.503,2.029l5.778,0Zm19.07,-25.126l32.416,-0c4.701,-0 7.968,0.918 9.8,2.755c1.833,1.838 2.477,4.82 1.934,8.949l-2.668,20.267l-8.503,-0l2.523,-19.171c0.309,-2.351 0.158,-3.901 -0.455,-4.652c-0.612,-0.751 -2.024,-1.126 -4.237,-1.126l-4.741,0l-3.283,24.949l-8.623,-0l3.284,-24.949l-9.867,0l-3.283,24.949l-8.504,-0l4.207,-31.971Zm62.555,-3.645l-8.859,0l1.045,-7.941l8.859,0l-1.045,7.941Zm-4.687,35.616l-8.859,-0l4.207,-31.971l8.86,-0l-4.208,31.971Zm11.497,-31.971l15.882,-0c4.8,-0 8.108,0.904 9.924,2.711c1.817,1.807 2.45,4.805 1.898,8.993l-2.667,20.267l-8.445,-0l2.531,-19.23c0.315,-2.39 0.149,-3.941 -0.499,-4.652c-0.647,-0.711 -2.086,-1.067 -4.319,-1.067l-6.785,0l-3.283,24.949l-8.445,-0l4.208,-31.971Z" style="fill:#d8d8d8;"/></svg>