<?xml version="1.0" encoding="UTF-8" standalone="no"?><!DOCTYPE svg PUBLIC "-//W3C//DTD SVG 1.1//EN" "http://www.w3.org/Graphics/SVG/1.1/DTD/svg11.dtd"><svg width="100%" height="100%" viewBox="0 0 400 400" version="1.1" xmlns="http://www.w3.org/2000/svg" xmlns:xlink="http://www.w3.org/1999/xlink" xml:space="preserve" xmlns:serif="http://www.serif.com/" style="fill-rule:evenodd;clip-rule:evenodd;stroke-linejoin:round;stroke-miterlimit:2;"><path id="SQLite" d="M15.247,220.99c0.443,-4.545 1.253,-8.181 2.253,-11.343c3.148,4.761 5.548,9.983 7.601,15.419c-1.468,-7.67 -3.651,-14.289 -6.43,-20.033l3.039,-9.407c2.788,4.204 5.239,8.973 7.236,14.503c-1.115,-6.542 -3.13,-12.75 -5.794,-18.719c4.491,-20.932 12.831,-39.612 20.907,-54.187c11.409,-20.591 28.023,-38.945 41.396,-39.191c5.32,0.202 9.936,2.87 13.359,6.63c11.108,12.201 9.633,42.216 -21.306,89.695c-13.015,4.657 -24.554,10.793 -30.378,14.652c6.038,-3.333 13.631,-5.076 26.041,-8.04c-5.763,8.621 -12.063,17.401 -19.11,26.403c-11.204,5.769 -19.934,13.279 -23.642,24.324c14.472,-69.937 45.222,-122.139 61.97,-138.865c-5.959,4.4 -23.551,18.75 -45.264,65.375c-15.725,33.768 -23.204,71.967 -20.653,106.71c0.342,4.663 1.776,9.105 2.825,13.594l-1.339,0.832c-3.537,-11.167 -5.543,-25.874 -4.46,-45.961c-2.026,-12.26 -4.151,-24.323 -8.251,-32.391Zm300.47,15.503l-7.92,-0l-0,-2.598c7.461,-0.356 11.34,-5.297 13.349,-12.633l2.337,-0l0,11.508l12.074,0l0,3.723l-12.074,-0l-0.002,31.71c0,1.388 0.738,3.1 1.938,3.796c1.2,0.696 2.363,0.674 3.564,0.542c1.779,-0.196 4.819,-1.874 7.22,-3.679c2.164,-1.627 3.794,-3.409 3.794,-3.409l1.995,1.743c-5.104,5.6 -10.785,10.135 -18.509,10.89c-2.06,-0 -4.035,-0.819 -5.492,-2.275c-1.456,-1.456 -2.274,-3.432 -2.274,-5.491l-0,-33.827Zm-26.889,4.815c-0.001,-1.278 -0.554,-2.492 -1.518,-3.331c-0.963,-0.839 -2.243,-1.22 -3.508,-1.045l-4.772,0.66l-0,-2.636l14.615,-3.304l2.834,-0l0,38.17c0,2.408 1.952,4.361 4.361,4.361l3.985,-0l0,2.3l-23.274,0l-0,-2.3l2.933,-0c1.157,-0 2.266,-0.46 3.084,-1.278c0.818,-0.819 1.277,-1.928 1.276,-3.085l-0.016,-28.512Zm-3.619,-27.935c1.457,-1.541 4.433,-1.097 6.642,0.991c2.209,2.088 2.818,5.035 1.361,6.577c-1.458,1.541 -4.434,1.097 -6.643,-0.991c-2.208,-2.088 -2.818,-5.035 -1.36,-6.577Zm-168.596,3.861c-0,0 -1.167,-15.674 -16.765,-15.855c-15.599,-0.181 -13.784,13.304 -13.784,13.304c-0,0 -0.85,6.639 13.147,14.98c2.621,1.562 13.597,8.419 16.906,11.851c3.966,4.115 6.895,9.376 6.895,15.489c0,12.142 -10.088,21.141 -21.183,21.141c-6.01,0 -11.788,-1.665 -14.916,-3.19c-0.689,-0.377 -2.496,-0.995 -3.357,-0.735c-0.752,0.227 -1.381,0.746 -1.746,1.442c-0.478,0.823 -0.854,1.539 -0.854,1.539l-2.074,-0.024l-0.111,-20.468l2.305,-0.011c-0,2.085 0.1,2.994 0.176,3.483c0.794,5.132 4.932,14.935 19.309,15.205c3.979,0.074 8.731,-2.069 11.195,-5.196c2.128,-2.699 3.179,-5.963 2.811,-8.554c-0.482,-3.397 -1.336,-8.615 -10.072,-14.571c-3.005,-2.048 -8.534,-5.568 -15.393,-10.048c-11.709,-7.646 -10.897,-21.981 -8.629,-26.483c-0,-0 1.7,-4.584 6.624,-8.382c4.481,-3.455 14.322,-4.297 19.726,-2.622l6.204,1.922c0.685,0.213 2.203,0.316 2.769,-0.125c0.565,-0.441 0.88,-1.131 0.841,-1.848l-0.003,-0.065l2.174,-0.003l0.003,17.695l-2.198,0.129Zm42.438,58.109c-15.032,-5.842 -25.668,-20.182 -25.668,-36.927c-0.087,-22.014 18.069,-39.896 40.698,-39.729c23.226,0 41.255,17.802 40.698,39.729c-0,19.181 -13.956,35.206 -32.487,38.918c9.783,11.25 18.608,25.343 33.964,20.081l0.985,1.927c-11.058,4.378 -21.122,2.991 -30.562,-2.017c-2.608,-1.383 -4.802,-3.513 -6.671,-5.197c-6.235,-5.62 -9.254,-11.924 -15.245,-15.032c-1.962,-0.449 -3.87,-1.037 -5.712,-1.753Zm15.168,-73.964c-16.722,-0.729 -29.754,15.732 -28.977,36.842c-0.384,20.965 11.076,37.211 28.839,37.211c17.763,-0 29.964,-16.028 29.116,-37.211c0.431,-21.646 -12.225,-37.367 -28.978,-36.842Zm54.571,6.006c-0,-1.605 -0.638,-3.145 -1.773,-4.28c-1.135,-1.135 -2.674,-1.773 -4.28,-1.773l-2.677,0l-0,-2.645l26.114,0l0,2.645l-1.516,0c-1.605,0 -3.144,0.638 -4.279,1.773c-1.136,1.135 -1.773,2.675 -1.773,4.28l-0,59.261c-0,1.887 0.75,3.698 2.084,5.032c0.841,0.841 3.643,2.084 5.032,2.084l10.606,0c2.405,0 8.564,-0.997 10.265,-2.698c1.7,-1.701 3.231,-3.965 3.231,-6.37l2.368,-0.001l-1.147,12.193l-49.886,-0l0.233,-2.401l0.974,-0.095c3.644,-0.356 6.424,-3.42 6.424,-7.083l-0,-59.922Zm125.2,49.46c0.389,3.473 1.391,6.591 2.812,9.032c2.029,5.203 8.88,7.194 15.912,5.088c3.823,-1.144 8.867,-4.966 10.277,-8.665c-0,-0 1.257,1.273 1.762,1.847c-3.134,8.307 -9.634,14.007 -17.736,14.007c-11.028,-0 -19.981,-5.614 -19.981,-21.747c-0,-13.203 9.742,-25.153 20.77,-25.153c8.146,0 11.531,2.02 13.21,6.907c0.766,2.229 -0.273,4.653 -2.958,7.363c-5.829,6.048 -11.614,9.246 -24.038,11.311l-0.03,0.01Zm0.303,-2.359c26.327,-4.668 16.372,-18.996 10.164,-18.55c-5.861,0.422 -10.646,7.917 -10.646,17.668c-0,0.304 0.004,0.606 0.014,0.906l0.468,-0.024Z" style="fill:#d8d8d8;"/></svg>