<?xml version="1.0" encoding="UTF-8" standalone="no"?>
<!DOCTYPE svg PUBLIC "-//W3C//DTD SVG 1.1//EN" "http://www.w3.org/Graphics/SVG/1.1/DTD/svg11.dtd">
<svg width="100%" height="100%" viewBox="0 0 400 400" version="1.1" xmlns="http://www.w3.org/2000/svg" xmlns:xlink="http://www.w3.org/1999/xlink" xml:space="preserve" xmlns:serif="http://www.serif.com/" style="fill-rule:evenodd;clip-rule:evenodd;stroke-linejoin:round;stroke-miterlimit:2;">
    <g transform="matrix(1.22421,0,0,1.22421,-20.3585,5.58947)">
        <g transform="matrix(0.330509,0,0,0.330509,120.265,78.8949)">
            <path d="M269.821,6.095C265.537,5.344 256.792,5.057 254.546,7.102C211.468,46.337 4.533,234.811 4.533,234.811L42.481,272.321L271.685,98.019L270.762,12.969C270.762,12.969 270.142,6.152 269.821,6.095Z" style="fill:rgb(206,206,206);"/>
            <path d="M275.185,261.06L42.595,84.719L4.533,119.18C4.533,119.18 214.817,310.097 259.429,351.006C260.985,352.433 263.216,352.851 265.184,352.084C267.151,351.318 268.511,349.5 268.692,347.396C270.909,321.558 275.185,261.06 275.185,261.06Z" style="fill:rgb(224,224,224);"/>
            <g transform="matrix(0.859851,0,0,0.994359,50.569,0.0263106)">
                <path d="M333.052,39.111C347.197,45.109 356.165,57.542 356.174,71.165C356.205,118.369 356.277,228.483 356.312,280.882C356.323,298.418 344.694,314.404 326.408,321.986C295.393,334.847 251.401,353.088 251.401,353.088L254.741,5.899C254.741,5.899 303.122,26.417 333.052,39.111Z" style="fill:rgb(235,235,235);"/>
            </g>
        </g>
        <g transform="matrix(1,0,0,1.17572,11.3145,-52.8904)">
            <path d="M19.799,220.831L27.92,242.547L27.991,242.547L36.112,220.831L38.831,220.831L29.262,245.831L26.579,245.831L17.045,220.831L19.799,220.831ZM43.916,229.306L43.916,245.831L41.515,245.831L41.515,229.306L43.916,229.306ZM44.41,222.95C44.41,223.938 43.563,224.645 42.715,224.645C41.868,224.645 41.021,223.938 41.021,222.95C41.021,221.961 41.868,221.255 42.715,221.255C43.563,221.255 44.41,221.961 44.41,222.95ZM60.936,231.848L59.099,233.225C58.393,231.848 56.875,230.894 55.039,230.894C53.309,230.894 51.543,231.636 51.543,233.472C51.543,235.026 52.779,235.732 55.498,236.297C59.382,237.109 61.218,238.557 61.218,241.135C61.218,244.913 58.04,246.255 55.003,246.255C52.496,246.255 49.989,245.266 48.471,243.041L50.378,241.629C51.225,243.077 53.026,244.207 54.968,244.207C57.016,244.207 58.852,243.465 58.852,241.311C58.852,239.581 57.122,238.875 53.979,238.133C52.037,237.674 49.248,236.827 49.248,233.684C49.248,230.33 52.143,228.882 55.145,228.882C57.44,228.882 59.876,229.976 60.936,231.848ZM80.286,245.831L77.991,245.831C77.92,244.948 77.849,243.712 77.849,243.006L77.779,243.006C76.861,244.913 74.46,246.255 72.129,246.255C67.927,246.255 65.844,243.536 65.844,239.44L65.844,229.306L68.245,229.306L68.245,238.451C68.245,241.911 69.269,244.242 72.729,244.242C75.272,244.242 77.743,242.194 77.743,237.78L77.743,229.306L80.145,229.306L80.145,242.194C80.145,243.077 80.18,244.701 80.286,245.831ZM96.917,235.697L96.917,235.167C96.917,232.307 95.363,230.894 92.503,230.894C90.561,230.894 88.76,231.671 87.595,232.837L86.253,231.248C87.595,229.906 89.925,228.882 92.75,228.882C96.317,228.882 99.177,230.859 99.177,234.885L99.177,242.123C99.177,243.394 99.283,244.913 99.459,245.831L97.305,245.831C97.164,245.019 97.058,244.03 97.058,243.147L96.988,243.147C95.469,245.336 93.633,246.255 90.985,246.255C88.478,246.255 85.265,244.913 85.265,241.24C85.265,236.156 90.879,235.697 96.917,235.697ZM96.917,237.568L96.211,237.568C92.291,237.568 87.736,237.992 87.736,241.135C87.736,243.5 89.749,244.277 91.62,244.277C95.01,244.277 96.917,241.735 96.917,238.804L96.917,237.568ZM107.828,219.136L107.828,245.831L105.427,245.831L105.427,219.136L107.828,219.136ZM137.347,223.232L135.335,224.856C134.275,223.338 132.545,222.349 130.179,222.349C127.708,222.349 124.848,223.832 124.848,227.046C124.848,230.224 127.496,231.036 130.285,231.954C133.816,233.119 137.701,234.249 137.701,239.263C137.701,244.277 133.499,246.466 129.544,246.466C126.507,246.466 123.47,245.231 121.67,242.759L123.859,241.135C124.953,242.9 126.966,244.277 129.579,244.277C132.157,244.277 135.123,242.653 135.123,239.44C135.123,235.944 132.192,235.061 129.014,234.072C125.695,233.048 122.305,231.601 122.305,227.081C122.305,222.243 126.613,220.195 130.285,220.195C133.64,220.195 136.147,221.608 137.347,223.232ZM150.236,229.306L150.236,231.318L145.575,231.318L145.575,240.958C145.575,243.43 146.599,243.995 148.047,243.995C148.717,243.995 149.494,243.783 150.13,243.465L150.236,245.548C149.388,245.866 148.506,246.043 147.411,246.043C145.645,246.043 143.174,245.266 143.174,241.629L143.174,231.318L139.749,231.318L139.749,229.306L143.174,229.306L143.174,224.645L145.575,224.645L145.575,229.306L150.236,229.306ZM168.279,245.831L165.984,245.831C165.914,244.948 165.843,243.712 165.843,243.006L165.772,243.006C164.854,244.913 162.453,246.255 160.123,246.255C155.921,246.255 153.837,243.536 153.837,239.44L153.837,229.306L156.239,229.306L156.239,238.451C156.239,241.911 157.263,244.242 160.723,244.242C163.265,244.242 165.737,242.194 165.737,237.78L165.737,229.306L168.138,229.306L168.138,242.194C168.138,243.077 168.173,244.701 168.279,245.831ZM188.089,243.041C186.676,245.125 184.204,246.255 181.839,246.255C176.683,246.255 173.293,242.441 173.293,237.568C173.293,232.695 176.683,228.882 181.839,228.882C184.204,228.882 186.676,230.012 188.089,232.166L188.159,232.166L188.159,219.136L190.56,219.136L190.56,245.831L188.159,245.831L188.159,243.041L188.089,243.041ZM175.836,237.568C175.836,241.24 178.096,244.207 182.086,244.207C185.793,244.207 188.442,241.346 188.442,237.568C188.442,233.79 185.793,230.894 182.086,230.894C178.096,230.894 175.836,233.896 175.836,237.568ZM199.423,229.306L199.423,245.831L197.022,245.831L197.022,229.306L199.423,229.306ZM199.918,222.95C199.918,223.938 199.07,224.645 198.223,224.645C197.375,224.645 196.528,223.938 196.528,222.95C196.528,221.961 197.375,221.255 198.223,221.255C199.07,221.255 199.918,221.961 199.918,222.95ZM222.234,237.568C222.234,242.547 218.561,246.255 213.406,246.255C208.286,246.255 204.614,242.547 204.614,237.568C204.614,232.589 208.286,228.882 213.406,228.882C218.561,228.882 222.234,232.589 222.234,237.568ZM219.691,237.568C219.691,233.861 217.255,230.894 213.406,230.894C209.593,230.894 207.156,233.861 207.156,237.568C207.156,241.276 209.593,244.207 213.406,244.207C217.255,244.207 219.691,241.276 219.691,237.568ZM255.426,240.534L257.403,241.805C255.743,244.312 252.53,246.466 248.046,246.466C240.489,246.466 235.016,240.923 235.016,233.331C235.016,225.739 240.595,220.195 248.046,220.195C251.718,220.195 255.214,221.714 256.944,224.15L254.825,225.704C253.766,224.08 251.259,222.42 248.081,222.42C241.619,222.42 237.7,227.505 237.7,233.331C237.7,239.157 241.655,244.242 248.081,244.242C250.941,244.242 253.695,243.112 255.426,240.534ZM277.636,237.568C277.636,242.547 273.964,246.255 268.808,246.255C263.688,246.255 260.016,242.547 260.016,237.568C260.016,232.589 263.688,228.882 268.808,228.882C273.964,228.882 277.636,232.589 277.636,237.568ZM275.094,237.568C275.094,233.861 272.657,230.894 268.808,230.894C264.995,230.894 262.558,233.861 262.558,237.568C262.558,241.276 264.995,244.207 268.808,244.207C272.657,244.207 275.094,241.276 275.094,237.568ZM296.386,243.041C294.973,245.125 292.502,246.255 290.136,246.255C284.98,246.255 281.591,242.441 281.591,237.568C281.591,232.695 284.98,228.882 290.136,228.882C292.502,228.882 294.973,230.012 296.386,232.166L296.456,232.166L296.456,219.136L298.857,219.136L298.857,245.831L296.456,245.831L296.456,243.041L296.386,243.041ZM284.133,237.568C284.133,241.24 286.393,244.207 290.383,244.207C294.091,244.207 296.739,241.346 296.739,237.568C296.739,233.79 294.091,230.894 290.383,230.894C286.393,230.894 284.133,233.896 284.133,237.568ZM320.326,237.074C320.326,237.392 320.326,237.78 320.291,238.204L306.59,238.204C306.661,241.523 309.239,244.207 312.629,244.207C315.1,244.207 317.007,242.829 317.925,241.346L319.726,242.759C317.784,245.231 315.347,246.255 312.629,246.255C307.72,246.255 304.083,242.547 304.083,237.568C304.083,232.589 307.72,228.882 312.417,228.882C317.607,228.882 320.326,232.554 320.326,237.074ZM306.626,236.297L317.89,236.297C317.749,233.19 315.842,230.894 312.417,230.894C309.203,230.894 306.838,233.472 306.626,236.297Z" style="fill:rgb(216,216,216);"/>
        </g>
    </g>
</svg>
