<?xml version="1.0" encoding="UTF-8" standalone="no"?><!DOCTYPE svg PUBLIC "-//W3C//DTD SVG 1.1//EN" "http://www.w3.org/Graphics/SVG/1.1/DTD/svg11.dtd"><svg width="100%" height="100%" viewBox="0 0 400 400" version="1.1" xmlns="http://www.w3.org/2000/svg" xmlns:xlink="http://www.w3.org/1999/xlink" xml:space="preserve" xmlns:serif="http://www.serif.com/" style="fill-rule:evenodd;clip-rule:evenodd;stroke-linejoin:round;stroke-miterlimit:2;"><path id="Wavelab" d="M21.821,204.196l13.297,0.116c1.629,28.036 5.188,53.714 5.928,81.83l1.139,-0.053c-0.33,-27.609 5.07,-54.728 6.731,-81.685l12.059,-0.042c2.171,28.903 7.048,54.831 7.95,81.601l1.132,-0c0.163,-28.791 4.225,-54.783 5.794,-81.614l13.424,0.115l-11.856,101.819l-15.514,-0.087c-1.887,-19.607 -4.32,-40.501 -5.937,-58.959c-0.413,-4.719 -0.291,-9.483 -0.24,-14.253l-1.477,0c0.052,5.592 0.231,10.946 -0.234,16.072c-1.844,20.325 -3.942,38.212 -5.404,57.086l-15.253,-0.061l-11.539,-101.885Zm85.095,0l16.085,0l15.831,102.087l-13.12,-0l-2.366,-18.965l-15.394,0.004l-2.57,18.961l-12.716,-0l14.25,-102.087Zm7.356,19.27l-0.422,14.118l-4.623,37.523l12.189,-0.063l-4.607,-32.564c-1.307,-6.654 -1.302,-13.449 -1.357,-19.018l-1.18,0.004Zm186.328,-19.27l16.085,0l15.83,102.087l-13.12,-0l-2.366,-18.965l-15.393,0.004l-2.571,18.961l-12.716,-0l14.251,-102.087Zm7.356,19.27l-0.422,14.118l-4.624,37.523l12.189,-0.063l-4.607,-32.564c-1.307,-6.654 -1.301,-13.449 -1.357,-19.018l-1.179,0.004Zm31.518,-19.27l22.457,0c4.553,0 10.184,0.25 13.404,3.47c3.22,3.22 3.595,8.87 3.595,13.424c0,3.48 0.086,5.851 0.087,9.956c-0,1.352 -0.027,5.815 -0.157,8.542c-0.172,3.626 -0.589,7.466 -2.877,9.805c-1.59,1.627 -3.925,2.595 -7.335,2.388c-0,0.11 0.091,0.463 0.091,0.9c10.265,-0.189 10.362,8.632 10.362,12.532l-0,22.933c-0,4.81 -0.51,10.825 -3.911,14.226c-3.402,3.401 -9.416,3.911 -14.226,3.911l-21.51,-0l0.02,-102.087Zm12.968,53.815l0.019,35.538l9.351,-0.019c2.931,-0.151 3.787,-1.346 4.119,-5.865c-0,0 0.528,-3.72 0.291,-12.752c-0.237,-9.032 -0.406,-10.996 -0.406,-10.996l-0.171,-1.791c-0.223,-2.321 -2.17,-4.095 -4.502,-4.099l-8.701,-0.016Zm0.115,-41.865l-0.222,31.058l4.235,-0.128c2.432,-0.074 5.383,0.098 7.191,-1.252c2.268,-1.694 2.165,-9.16 2.089,-12.049c-0.157,-5.961 -0.372,-9.423 -0.481,-13.561c-0.049,-1.846 -0.997,-3.814 -3.266,-3.814c-3.805,0 -9.546,-0.254 -9.546,-0.254Zm-210.492,-11.95l13.189,0l8.258,62.766c-0,0 1.183,9.085 1.327,12.911c0.144,3.827 0.089,5.684 0.089,5.684l1.636,-0.093c0,-0 0.047,-3.443 0.074,-6.246c0.028,-2.803 1.133,-12.643 1.133,-12.643l7.88,-62.379l13.258,0l-15.41,102.087l-15.854,-0l-15.58,-102.087Zm55.968,0l33.521,0l-0.052,12.717l-19.807,0.046l-0.056,29.946l17.902,-0.057l-0.005,12.468l-17.758,-0.136l-0.138,34.249l19.981,-0.029l-0.095,12.883l-33.58,-0l0.087,-102.087Zm46.712,0l13.472,0l-0.022,89.392l22.388,0.243l-0.077,12.452l-35.739,-0l-0.022,-102.087Zm-90.189,-103.221c0.598,-2.489 2.19,-4.666 4.459,-5.982c2.922,-1.693 6.524,-1.702 9.454,-0.023l55.03,31.528l-13.467,34.988l-9.571,-25.309c-1.207,-2.846 -4.068,-4.651 -7.925,-4.651c-3.092,0 -6.451,2.503 -8.435,4.875l-10.968,18.724l-18.062,-52.98c-0.146,-0.408 -0.318,-0.798 -0.515,-1.17Zm82.019,33.014l5.137,2.943c3.03,1.736 4.903,4.957 4.914,8.449c0.011,3.492 -1.843,6.724 -4.862,8.478l-16.651,9.678l11.462,-29.548Zm-36.753,44.246l-29.798,17.319c-3.239,1.882 -7.235,1.89 -10.482,0.022c-3.246,-1.868 -5.247,-5.328 -5.247,-9.073l0,-33.418l5.967,13.782c1.071,2.998 4.769,5.521 7.903,6.08c3.134,0.56 7.312,-0.723 10.3,-4.49l11.043,-20.675l10.314,30.453Z" style="fill:#d8d8d8;"/></svg>